<svg xmlns="http://www.w3.org/2000/svg" viewBox="0 0 56.74 63.04"><defs><style>.cls-1{fill:#0049c5;}.cls-2{fill:#fff;fill-rule:evenodd;}</style></defs><title>Ресурс 3</title><g id="Слой_2" data-name="Слой 2"><g id="Layer_1" data-name="Layer 1"><path class="cls-1" d="M26.43,3h4.95c13.46,1.07,21.9,8.43,23.16,21.86v5c-.9,8.79-2.8,17.13-10.39,21.76-2.73,1.88-6,2.7-9,3.9a79.7,79.7,0,0,0-6,7.46h-.27A64.48,64.48,0,0,0,23,55.58c-5.64-1.73-11.14-4.41-15.06-9C4,42.41,3.83,36.92,2.54,31.38V25.2C3.6,11.72,13,4.3,26.43,3Z"/><circle class="cls-1" cx="28.37" cy="28.37" r="28.37"/><path class="cls-2" d="M24.36,13.75H33.1a.34.34,0,0,1,.34.34v1.68a.34.34,0,0,1-.34.34H24.36a.34.34,0,0,1-.34-.34V14.09a.34.34,0,0,1,.34-.34"/><path class="cls-2" d="M27.55,24V15.27a.34.34,0,0,1,.34-.34h1.68a.34.34,0,0,1,.34.34V24a.35.35,0,0,1-.34.34H27.89a.34.34,0,0,1-.34-.34"/><path class="cls-2" d="M44,24.7v8.74a.34.34,0,0,1-.34.34H42a.34.34,0,0,1-.33-.34V24.7a.34.34,0,0,1,.33-.34H43.7a.34.34,0,0,1,.34.34"/><path class="cls-2" d="M33.78,27.89h8.74a.34.34,0,0,1,.34.34v1.68a.34.34,0,0,1-.34.34H33.78a.34.34,0,0,1-.34-.34V28.23a.34.34,0,0,1,.34-.34"/><path class="cls-2" d="M24.36,44.38H33.1a.34.34,0,0,0,.34-.34V42.37A.34.34,0,0,0,33.1,42H24.36a.34.34,0,0,0-.34.34V44a.34.34,0,0,0,.34.34"/><path class="cls-2" d="M27.55,34.12v8.75a.34.34,0,0,0,.34.33h1.68a.34.34,0,0,0,.34-.33V34.12a.34.34,0,0,0-.34-.34H27.89a.34.34,0,0,0-.34.34"/><path class="cls-2" d="M13.41,24.7v8.74a.34.34,0,0,0,.34.34h1.68a.34.34,0,0,0,.34-.34V24.7a.34.34,0,0,0-.34-.34H13.75a.34.34,0,0,0-.34.34"/><path class="cls-2" d="M23.68,27.89H14.93a.34.34,0,0,0-.34.34v1.68a.34.34,0,0,0,.34.34h8.75a.35.35,0,0,0,.34-.34V28.23a.34.34,0,0,0-.34-.34"/><path class="cls-2" d="M32.8,18.81,39,25a.34.34,0,0,0,.48,0l1.18-1.19a.32.32,0,0,0,0-.47L38.4,21.07l5.4-5.41a.34.34,0,0,0,0-.48L42.62,14a.34.34,0,0,0-.48,0L36.73,19.4l-2.26-2.26a.34.34,0,0,0-.48,0L32.8,18.33a.34.34,0,0,0,0,.48"/><path class="cls-2" d="M24.65,18.81,18.47,25A.34.34,0,0,1,18,25L16.8,23.8a.33.33,0,0,1,0-.47l2.26-2.26-5.41-5.41a.34.34,0,0,1,0-.48L14.84,14a.34.34,0,0,1,.48,0l5.41,5.41L23,17.14a.33.33,0,0,1,.47,0l1.19,1.19a.34.34,0,0,1,0,.48"/><path class="cls-2" d="M32.8,39.33,39,33.15a.33.33,0,0,1,.48,0l1.18,1.18a.33.33,0,0,1,0,.48L38.4,37.07l5.4,5.41a.34.34,0,0,1,0,.48l-1.18,1.18a.34.34,0,0,1-.48,0l-5.41-5.4L34.47,41A.33.33,0,0,1,34,41L32.8,39.81a.34.34,0,0,1,0-.48"/><path class="cls-2" d="M24.65,39.33l-6.18-6.18a.33.33,0,0,0-.48,0L16.8,34.33a.34.34,0,0,0,0,.48l2.26,2.26-5.41,5.41a.34.34,0,0,0,0,.48l1.19,1.18a.34.34,0,0,0,.48,0l5.41-5.4L23,41a.32.32,0,0,0,.47,0l1.19-1.18a.34.34,0,0,0,0-.48"/></g></g></svg>