<svg width="45" height="48" viewBox="0 0 45 48" fill="none" xmlns="http://www.w3.org/2000/svg">
<g clip-path="url(#clip0)">
<path d="M5.625 3.35449C4.87908 3.35449 4.16371 3.66398 3.63626 4.21487C3.10882 4.76575 2.8125 5.51292 2.8125 6.29199V29.792C2.8125 30.5711 3.10882 31.3182 3.63626 31.8691C4.16371 32.42 4.87908 32.7295 5.625 32.7295H32.5856C34.0773 32.7298 35.5079 33.349 36.5625 34.4509L42.1875 40.3259V6.29199C42.1875 5.51292 41.8912 4.76575 41.3637 4.21487C40.8363 3.66398 40.1209 3.35449 39.375 3.35449H5.625ZM39.375 0.416992C40.8668 0.416992 42.2976 1.03596 43.3525 2.13774C44.4074 3.23952 45 4.73385 45 6.29199V43.8714C44.9999 44.1621 44.9173 44.4461 44.7626 44.6877C44.6079 44.9293 44.3881 45.1175 44.1309 45.2285C43.8738 45.3395 43.5909 45.3683 43.318 45.3114C43.0452 45.2544 42.7946 45.1141 42.5981 44.9084L34.5741 36.5277C34.0467 35.9768 33.3315 35.6672 32.5856 35.667H5.625C4.13316 35.667 2.70242 35.048 1.64752 33.9462C0.592632 32.8445 0 31.3501 0 29.792V6.29199C0 4.73385 0.592632 3.23952 1.64752 2.13774C2.70242 1.03596 4.13316 0.416992 5.625 0.416992L39.375 0.416992Z" fill="#0EADFF"/>
<path d="M19.8731 14.4006C19.3253 13.5095 18.5153 12.8282 17.565 12.4591C16.6146 12.0899 15.5752 12.053 14.603 12.3537C13.6308 12.6544 12.7784 13.2765 12.1737 14.1266C11.5691 14.9767 11.2449 16.0088 11.25 17.0678C11.2505 17.9448 11.4765 18.8055 11.9043 19.56C12.3322 20.3146 12.9461 20.9353 13.6821 21.3573C14.4182 21.7794 15.2492 21.9872 16.0884 21.9592C16.9276 21.9311 17.7442 21.6682 18.4528 21.1979C18.0844 22.3406 17.3981 23.5597 16.2675 24.7817C16.0512 25.0154 15.9326 25.3293 15.9379 25.6543C15.9432 25.9794 16.0719 26.2889 16.2956 26.5148C16.5194 26.7407 16.82 26.8646 17.1312 26.8591C17.4423 26.8536 17.7387 26.7192 17.955 26.4854C22.1344 21.9617 21.5916 17.0443 19.8731 14.4064V14.4006ZM31.1231 14.4006C30.5753 13.5095 29.7653 12.8282 28.815 12.4591C27.8646 12.0899 26.8252 12.053 25.853 12.3537C24.8808 12.6544 24.0284 13.2765 23.4237 14.1266C22.8191 14.9767 22.4949 16.0088 22.5 17.0678C22.5005 17.9448 22.7265 18.8055 23.1543 19.56C23.5822 20.3146 24.1961 20.9353 24.9321 21.3573C25.6682 21.7794 26.4992 21.9872 27.3384 21.9592C28.1776 21.9311 28.9942 21.6682 29.7028 21.1979C29.3344 22.3406 28.6481 23.5597 27.5175 24.7817C27.3012 25.0154 27.1826 25.3293 27.1879 25.6543C27.1932 25.9794 27.3219 26.2889 27.5456 26.5148C27.7694 26.7407 28.07 26.8646 28.3812 26.8591C28.6923 26.8536 28.9887 26.7192 29.205 26.4854C33.3844 21.9617 32.8416 17.0443 31.1231 14.4064V14.4006Z" fill="#0EADFF"/>
</g>
<defs>
<clipPath id="clip0">
<rect width="45" height="47" fill="white" transform="translate(0 0.416992)"/>
</clipPath>
</defs>
</svg>
