<svg width="16" height="21" viewBox="0 0 16 21" fill="none" xmlns="http://www.w3.org/2000/svg">
<path d="M8.15332 9.04492C8.15332 8.87916 8.08747 8.72019 7.97026 8.60298C7.85305 8.48577 7.69408 8.41992 7.52832 8.41992C7.36256 8.41992 7.20359 8.48577 7.08638 8.60298C6.96917 8.72019 6.90332 8.87916 6.90332 9.04492V13.7862L5.47082 12.3524C5.41271 12.2943 5.34372 12.2482 5.2678 12.2168C5.19187 12.1853 5.1105 12.1691 5.02832 12.1691C4.94614 12.1691 4.86476 12.1853 4.78884 12.2168C4.71291 12.2482 4.64393 12.2943 4.58582 12.3524C4.52771 12.4105 4.48161 12.4795 4.45016 12.5554C4.41871 12.6314 4.40253 12.7127 4.40253 12.7949C4.40253 12.8771 4.41871 12.9585 4.45016 13.0344C4.48161 13.1103 4.52771 13.1793 4.58582 13.2374L7.08582 15.7374C7.14387 15.7956 7.21284 15.8418 7.28877 15.8733C7.36471 15.9048 7.44611 15.921 7.52832 15.921C7.61053 15.921 7.69193 15.9048 7.76786 15.8733C7.84379 15.8418 7.91276 15.7956 7.97082 15.7374L10.4708 13.2374C10.5289 13.1793 10.575 13.1103 10.6065 13.0344C10.6379 12.9585 10.6541 12.8771 10.6541 12.7949C10.6541 12.7127 10.6379 12.6314 10.6065 12.5554C10.575 12.4795 10.5289 12.4105 10.4708 12.3524C10.4127 12.2943 10.3437 12.2482 10.2678 12.2168C10.1919 12.1853 10.1105 12.1691 10.0283 12.1691C9.94614 12.1691 9.86476 12.1853 9.78884 12.2168C9.71291 12.2482 9.64393 12.2943 9.58582 12.3524L8.15332 13.7862V9.04492Z" fill="#0EADFF"/>
<path d="M15.0283 18.4199V6.54492L9.40332 0.919922H2.52832C1.86528 0.919922 1.22939 1.18331 0.760553 1.65215C0.291712 2.121 0.0283203 2.75688 0.0283203 3.41992V18.4199C0.0283203 19.083 0.291712 19.7188 0.760553 20.1877C1.22939 20.6565 1.86528 20.9199 2.52832 20.9199H12.5283C13.1914 20.9199 13.8272 20.6565 14.2961 20.1877C14.7649 19.7188 15.0283 19.083 15.0283 18.4199ZM9.40332 4.66992C9.40332 5.1672 9.60086 5.64412 9.95249 5.99575C10.3041 6.34738 10.781 6.54492 11.2783 6.54492H13.7783V18.4199C13.7783 18.7514 13.6466 19.0694 13.4122 19.3038C13.1778 19.5382 12.8598 19.6699 12.5283 19.6699H2.52832C2.1968 19.6699 1.87886 19.5382 1.64444 19.3038C1.41002 19.0694 1.27832 18.7514 1.27832 18.4199V3.41992C1.27832 3.0884 1.41002 2.77046 1.64444 2.53604C1.87886 2.30162 2.1968 2.16992 2.52832 2.16992H9.40332V4.66992Z" fill="#0EADFF"/>
</svg>
