<svg width="51" height="50" viewBox="0 0 51 50" fill="none" xmlns="http://www.w3.org/2000/svg">
<g clip-path="url(#clip0)">
<g clip-path="url(#clip1)">
<path d="M29.1948 3.28535C26.1029 1.19639 22.4884 0.0922852 18.7422 0.0922852C8.43433 0.0922852 0.0480957 8.47842 0.0480957 18.7864C0.0480957 29.0944 8.43433 37.4806 18.7422 37.4806C19.1532 37.4806 19.4863 37.1475 19.4863 36.7365C19.4863 36.3256 19.1533 35.9925 18.7422 35.9925C9.25474 35.9925 1.53608 28.2738 1.53608 18.7863C1.53608 9.29883 9.25483 1.58037 18.7422 1.58037C22.1903 1.58037 25.5167 2.59629 28.3619 4.51855C28.7024 4.74863 29.1648 4.65898 29.3949 4.31855C29.6249 3.97793 29.5354 3.51543 29.1948 3.28535Z" fill="#0EADFF"/>
<path d="M29.3657 33.2759C29.1362 32.9349 28.6739 32.8444 28.3331 33.0739C26.439 34.3478 24.3473 35.2186 22.1158 35.662C21.7128 35.7421 21.4509 36.1337 21.5311 36.5368C21.6014 36.8909 21.9123 37.1361 22.2601 37.1361C22.3082 37.1361 22.3569 37.1314 22.4059 37.1216C24.8318 36.6396 27.1053 35.6932 29.1636 34.3086C29.5046 34.0793 29.595 33.6169 29.3657 33.2759Z" fill="#0EADFF"/>
<path d="M29.3129 28.6355C29.0269 28.3405 28.5559 28.3328 28.2609 28.6189C25.6939 31.1061 22.318 32.472 18.7442 32.472C18.7093 32.472 18.6743 32.4719 18.6394 32.4717C15.023 32.4447 11.6227 31.0212 9.06489 28.4634C6.48013 25.8786 5.05669 22.4419 5.05669 18.7863C5.05669 15.1306 6.48022 11.6939 9.06489 9.10925C11.6227 6.55193 15.0229 5.12868 18.6394 5.10173C22.2555 5.07634 25.669 6.44284 28.2609 8.95388C28.5561 9.23982 29.027 9.2322 29.3128 8.93708C29.5988 8.64197 29.5914 8.17097 29.2961 7.88503C26.4221 5.10075 22.635 3.5863 18.6282 3.61365C14.6186 3.64353 10.8486 5.22156 8.01265 8.05691C5.14683 10.9227 3.5686 14.7332 3.5686 18.7863C3.5686 22.8394 5.14683 26.6499 8.01265 29.5156C10.8485 32.3514 14.6185 33.9298 18.6282 33.9596C18.667 33.9599 18.7054 33.96 18.7444 33.96C22.7065 33.96 26.4501 32.4453 29.2963 29.6875C29.5915 29.4016 29.5989 28.9306 29.3129 28.6355Z" fill="#0EADFF"/>
<path d="M19.4863 18.0907V12.6105C21.0305 12.8824 22.1894 13.9819 22.1894 15.2938C22.1894 15.7048 22.5225 16.0379 22.9335 16.0379C23.3444 16.0379 23.6775 15.7048 23.6775 15.2938C23.6775 13.1748 21.8558 11.4144 19.4863 11.1054V10.4042C19.4863 9.99326 19.1532 9.66016 18.7422 9.66016C18.3313 9.66016 17.9982 9.99326 17.9982 10.4042V11.1054C15.6287 11.4143 13.807 13.1748 13.807 15.2938C13.807 17.4129 15.6287 19.1734 17.9982 19.4824V24.9626C16.4541 24.6906 15.2951 23.5911 15.2951 22.2792C15.2951 21.8683 14.962 21.5352 14.551 21.5352C14.1401 21.5352 13.807 21.8683 13.807 22.2792C13.807 24.3982 15.6287 26.1587 17.9982 26.4677V27.1688C17.9982 27.5798 18.3313 27.9129 18.7422 27.9129C19.1532 27.9129 19.4863 27.5798 19.4863 27.1688V26.4677C21.8558 26.1588 23.6775 24.3982 23.6775 22.2792C23.6775 20.1602 21.8558 18.3996 19.4863 18.0907ZM17.9984 17.9772C16.4542 17.7053 15.2953 16.6058 15.2953 15.2938C15.2953 13.9819 16.4542 12.8824 17.9984 12.6104V17.9772ZM19.4863 24.9624V19.5956C21.0305 19.8677 22.1894 20.9671 22.1894 22.279C22.1894 23.5909 21.0305 24.6904 19.4863 24.9624Z" fill="#0EADFF"/>
<path d="M49.9959 37.7246C49.8837 37.4406 49.6094 37.254 49.3039 37.254H44.6132V25.4293C44.6132 25.0184 44.2802 24.6853 43.8692 24.6853C43.4581 24.6853 43.1251 25.0184 43.1251 25.4293V37.9979C43.1251 38.4089 43.4581 38.742 43.8692 38.742H47.4212L37.3827 48.1444L27.344 38.742H30.896C31.3071 38.742 31.6401 38.4089 31.6401 37.9979V1.58037H43.1252V22.453C43.1252 22.864 43.4582 23.1971 43.8693 23.1971C44.2803 23.1971 44.6133 22.864 44.6133 22.453V0.836328C44.6133 0.425391 44.2803 0.0922852 43.8693 0.0922852H30.8959C30.4849 0.0922852 30.1519 0.425391 30.1519 0.836328V37.254H25.4612C25.1558 37.254 24.8814 37.4406 24.7692 37.7246C24.657 38.0086 24.7297 38.3323 24.9525 38.541L36.874 49.7069C37.017 49.8409 37.1997 49.9079 37.3826 49.9079C37.5654 49.9079 37.7481 49.8409 37.8911 49.7069L49.8125 38.5409C50.0356 38.3323 50.1082 38.0085 49.9959 37.7246Z" fill="#0EADFF"/>
</g>
</g>
<defs>
<clipPath id="clip0">
<rect width="50" height="50" fill="white" transform="translate(0.0480957)"/>
</clipPath>
<clipPath id="clip1">
<rect width="50" height="50" fill="white" transform="translate(0.0480957)"/>
</clipPath>
</defs>
</svg>
