<svg width="50" height="50" viewBox="0 0 50 50" fill="none" xmlns="http://www.w3.org/2000/svg">
<g clip-path="url(#clip0)">
<path d="M46.6976 18.943L48.1622 17.4784C48.5857 17.055 48.8189 16.4921 48.8189 15.8933C48.8189 15.2946 48.5857 14.7316 48.1623 14.3083L46.4847 12.6306C46.0613 12.2073 45.4983 11.9741 44.8997 11.9741C44.3009 11.9741 43.738 12.2073 43.3147 12.6306L41.8499 14.0954C39.9167 12.7638 37.7231 11.7849 35.3618 11.2524V9.08749H36.253C37.4598 9.08749 38.4416 8.10565 38.4416 6.89891V3.85419C38.4416 2.64736 37.4598 1.66553 36.253 1.66553H26.1771C24.9704 1.66553 23.9885 2.64736 23.9885 3.85419V6.89882C23.9885 8.10555 24.9704 9.08739 26.1771 9.08739H27.0682V11.2584C24.7178 11.7924 22.5339 12.769 20.6085 14.0953L19.1437 12.6305C18.7204 12.2072 18.1574 11.974 17.5588 11.974C16.9599 11.974 16.397 12.2072 15.9737 12.6305L14.2961 14.3082C13.4221 15.1822 13.4221 16.6043 14.2961 17.4783L14.5557 17.738H7.63348C7.09422 17.738 6.65692 18.1752 6.65692 18.7145C6.65692 19.2539 7.09422 19.6911 7.63348 19.6911H15.2713C14.5436 20.863 13.9412 22.1203 13.4833 23.4447H0.97656C0.437304 23.4447 0 23.8819 0 24.4212C0 24.9606 0.437304 25.3978 0.97656 25.3978H12.925C12.6495 26.6091 12.4915 27.8644 12.4635 29.1514H6.24999C5.71073 29.1514 5.27343 29.5886 5.27343 30.128C5.27343 30.6673 5.71073 31.1045 6.24999 31.1045H12.5219C12.6275 32.3969 12.8647 33.6524 13.2198 34.8581H4.8828C4.34355 34.8581 3.90624 35.2953 3.90624 35.8347C3.90624 36.3741 4.34355 36.8113 4.8828 36.8113H13.9144C16.7555 43.5736 23.4465 48.3347 31.2291 48.3347C41.5794 48.3347 50 39.9141 50 29.5638C50 25.6245 48.7792 21.9654 46.6976 18.943ZM44.6957 14.0117C44.7655 13.9419 44.8451 13.9272 44.8997 13.9272C44.9542 13.9272 45.0339 13.9419 45.1037 14.0117L46.7813 15.6893C46.8512 15.7592 46.8658 15.8388 46.8658 15.8933C46.8658 15.9478 46.8512 16.0275 46.7812 16.0973L45.4974 17.3812C44.8575 16.633 44.1601 15.9355 43.4118 15.2957L44.6957 14.0117ZM25.9416 6.89891V3.85419C25.9416 3.72431 26.0473 3.61865 26.1771 3.61865H36.253C36.3828 3.61865 36.4885 3.72431 36.4885 3.85419V6.89882C36.4885 7.0287 36.3828 7.13427 36.253 7.13427H34.3853H28.0448H26.1771C26.0473 7.13436 25.9416 7.0287 25.9416 6.89891ZM29.0213 9.08749H33.4087V10.9202C32.6934 10.8371 31.9664 10.793 31.2292 10.793C30.4823 10.793 29.7458 10.8382 29.0214 10.9234V9.08749H29.0213ZM15.677 15.6892L17.3547 14.0116C17.4245 13.9418 17.5041 13.9271 17.5587 13.9271C17.6131 13.9271 17.6928 13.9418 17.7627 14.0116L19.0465 15.2956C18.2983 15.9354 17.6008 16.6329 16.961 17.3811L15.677 16.0972C15.5645 15.9848 15.5645 15.8017 15.677 15.6892ZM31.2291 46.3815C21.9558 46.3815 14.4114 38.837 14.4114 29.5637C14.4114 20.2904 21.9558 12.746 31.2291 12.746C40.5025 12.746 48.0469 20.2904 48.0469 29.5637C48.0469 38.837 40.5025 46.3815 31.2291 46.3815Z" fill="#0EADFF"/>
<path d="M37.6748 21.7369L33.0585 26.3532C32.5187 26.0445 31.8944 25.8669 31.2292 25.8669C29.1908 25.8669 27.5325 27.5252 27.5325 29.5637C27.5325 31.6021 29.1908 33.2604 31.2292 33.2604C33.2676 33.2604 34.9259 31.6021 34.9259 29.5637C34.9259 28.8985 34.7483 28.2742 34.4396 27.7344L39.0559 23.1181C39.4372 22.7367 39.4372 22.1184 39.0559 21.7369C38.6744 21.3556 38.0563 21.3556 37.6748 21.7369ZM31.2292 31.3074C30.2678 31.3074 29.4856 30.5252 29.4856 29.5638C29.4856 28.6024 30.2679 27.8201 31.2292 27.8201C32.1905 27.8201 32.9728 28.6024 32.9728 29.5638C32.9728 30.5252 32.1906 31.3074 31.2292 31.3074Z" fill="#0EADFF"/>
<path d="M31.2295 16.9026C31.4863 16.9026 31.7383 16.7981 31.9198 16.6165C32.1015 16.4348 32.2061 16.1829 32.2061 15.926C32.2061 15.6692 32.1016 15.4172 31.9198 15.2356C31.7383 15.054 31.4863 14.9495 31.2295 14.9495C30.9727 14.9495 30.7207 15.054 30.5391 15.2356C30.3574 15.4172 30.2529 15.6692 30.2529 15.926C30.2529 16.1838 30.3573 16.4348 30.5391 16.6165C30.7208 16.7981 30.9727 16.9026 31.2295 16.9026Z" fill="#0EADFF"/>
<path d="M31.2295 42.2246C30.9727 42.2246 30.7207 42.3291 30.5391 42.5107C30.3574 42.6924 30.2529 42.9443 30.2529 43.2012C30.2529 43.459 30.3573 43.71 30.5391 43.8916C30.7207 44.0742 30.9727 44.1777 31.2295 44.1777C31.4863 44.1777 31.7383 44.0742 31.9198 43.8916C32.1015 43.71 32.2061 43.458 32.2061 43.2012C32.2061 42.9443 32.1016 42.6924 31.9198 42.5107C31.7383 42.3291 31.4863 42.2246 31.2295 42.2246Z" fill="#0EADFF"/>
<path d="M21.5859 18.9434C21.3291 18.9434 21.0771 19.0479 20.8955 19.2295C20.7139 19.4111 20.6094 19.6631 20.6094 19.9199C20.6094 20.1777 20.7138 20.4287 20.8955 20.6113C21.0771 20.793 21.3291 20.8965 21.5859 20.8965C21.8428 20.8965 22.0947 20.793 22.2763 20.6113C22.4579 20.4287 22.5625 20.1777 22.5625 19.9199C22.5625 19.6631 22.458 19.4121 22.2763 19.2295C22.0947 19.0479 21.8428 18.9434 21.5859 18.9434Z" fill="#0EADFF"/>
<path d="M40.873 38.2307C40.6151 38.2307 40.3643 38.3352 40.1816 38.5168C40 38.6985 39.8965 38.9504 39.8965 39.2073C39.8965 39.4641 40 39.7161 40.1816 39.8977C40.3643 40.0793 40.6151 40.1838 40.873 40.1838C41.1299 40.1838 41.3818 40.0793 41.5634 39.8977C41.745 39.7161 41.8496 39.4641 41.8496 39.2073C41.8496 38.9504 41.7451 38.6985 41.5634 38.5168C41.3818 38.3352 41.1299 38.2307 40.873 38.2307Z" fill="#0EADFF"/>
<path d="M21.5859 38.2307C21.3291 38.2307 21.0771 38.3352 20.8955 38.5168C20.7139 38.6985 20.6094 38.9504 20.6094 39.2073C20.6094 39.4641 20.7138 39.7161 20.8955 39.8977C21.0772 40.0793 21.3291 40.1838 21.5859 40.1838C21.8428 40.1838 22.0947 40.0793 22.2763 39.8977C22.4579 39.7161 22.5625 39.4641 22.5625 39.2073C22.5625 38.9504 22.458 38.6985 22.2763 38.5168C22.0947 38.3352 21.8428 38.2307 21.5859 38.2307Z" fill="#0EADFF"/>
<path d="M17.5918 28.5872C17.334 28.5872 17.083 28.6916 16.9014 28.8733C16.7188 29.0549 16.6152 29.3069 16.6152 29.5637C16.6152 29.8206 16.7188 30.0725 16.9014 30.2541C17.083 30.4368 17.3341 30.5403 17.5918 30.5403C17.8486 30.5403 18.1006 30.4368 18.2822 30.2541C18.4638 30.0725 18.5684 29.8206 18.5684 29.5637C18.5684 29.3069 18.4639 29.0549 18.2822 28.8733C18.1006 28.6916 17.8486 28.5872 17.5918 28.5872Z" fill="#0EADFF"/>
<path d="M45.5576 28.8733C45.376 28.6916 45.124 28.5872 44.8672 28.5872C44.6094 28.5872 44.3584 28.6916 44.1769 28.8733C43.9952 29.0549 43.8906 29.3069 43.8906 29.5637C43.8906 29.8215 43.9951 30.0725 44.1769 30.2541C44.3584 30.4358 44.6104 30.5403 44.8672 30.5403C45.124 30.5403 45.376 30.4358 45.5576 30.2541C45.7393 30.0725 45.8438 29.8206 45.8438 29.5637C45.8437 29.3069 45.7393 29.055 45.5576 28.8733Z" fill="#0EADFF"/>
<path d="M0.976562 34.8586C0.719727 34.8586 0.467773 34.9622 0.286133 35.1438C0.104492 35.3264 0 35.5774 0 35.8352C0 36.092 0.104395 36.343 0.286133 36.5256C0.467773 36.7073 0.719727 36.8118 0.976562 36.8118C1.2334 36.8118 1.48535 36.7073 1.66689 36.5256C1.84854 36.344 1.95312 36.092 1.95312 35.8352C1.95312 35.5774 1.84863 35.3254 1.66689 35.1438C1.48535 34.9622 1.2334 34.8586 0.976562 34.8586Z" fill="#0EADFF"/>
<path d="M44.5798 26.5986C45.0966 26.4446 45.3908 25.9008 45.2368 25.3839C44.5464 23.0673 43.2722 20.9354 41.552 19.2188C39.8314 17.502 37.6966 16.2324 35.378 15.5472C34.8609 15.3942 34.3177 15.6896 34.1647 16.2068C34.0118 16.724 34.3072 17.2673 34.8245 17.4201C38.945 18.638 42.1378 21.8236 43.365 25.9416C43.4913 26.3654 43.8798 26.6395 44.3005 26.6395C44.3928 26.6395 44.4867 26.6263 44.5798 26.5986Z" fill="#0EADFF"/>
</g>
<defs>
<clipPath id="clip0">
<rect width="50" height="50" fill="white"/>
</clipPath>
</defs>
</svg>
