<svg width="51" height="50" viewBox="0 0 51 50" fill="none" xmlns="http://www.w3.org/2000/svg">
<g clip-path="url(#clip0)">
<path d="M47.1345 13.1177L48.4353 9.64844C48.4957 9.48738 48.5012 9.31091 48.4511 9.14639C48.4009 8.98187 48.2978 8.83849 48.1579 8.73851C48.0179 8.63854 47.8489 8.58753 47.677 8.59343C47.5051 8.59932 47.34 8.66177 47.2072 8.77109L34.6878 19.082C34.346 19.3647 34.0912 19.7386 33.9532 20.1602C33.8152 20.5818 33.7995 21.0339 33.9081 21.4641C33.9783 21.7392 34.0567 22.0433 34.1327 22.334C34.1895 22.5532 34.1765 22.7847 34.0955 22.9962C34.0145 23.2077 33.8696 23.3886 33.6809 23.5139L33.6502 23.5344C33.45 23.6679 33.2107 23.7299 32.971 23.7104C32.7312 23.6909 32.5051 23.591 32.3292 23.427L30.4689 20.7795L30.022 18.5449C29.9453 18.1666 29.9443 17.7769 30.0192 17.3982C30.0941 17.0195 30.2434 16.6595 30.4584 16.3389C30.8216 15.796 31.3546 15.3888 31.974 15.1812C32.2357 15.0932 32.5124 15.0579 32.7879 15.0775C33.0633 15.0971 33.3322 15.1711 33.5789 15.2953L35.6357 16.3236C35.7693 16.3904 35.9193 16.4175 36.0679 16.4016C36.2164 16.3858 36.3573 16.3277 36.4738 16.2342C36.5904 16.1407 36.6776 16.0158 36.7253 15.8742C36.773 15.7327 36.7791 15.5804 36.7429 15.4354L36.2418 13.4304C36.0787 12.7783 35.7197 12.1918 35.213 11.7501L35.8371 8.64522C35.9111 8.27101 35.8463 7.88265 35.6547 7.55279C35.4631 7.22293 35.158 6.97416 34.7962 6.85303L33.7494 6.50146L33.7396 6.49824C33.7073 6.48789 33.6743 6.48018 33.6419 6.471V5.46875C33.6419 5.26155 33.5596 5.06284 33.4131 4.91632C33.2666 4.76981 33.0679 4.6875 32.8607 4.6875C32.6535 4.6875 32.4548 4.76981 32.3083 4.91632C32.1618 5.06284 32.0794 5.26155 32.0794 5.46875V6.47061C32.0468 6.47979 32.0137 6.4875 31.9818 6.49785L31.972 6.50107L30.9271 6.85215C30.5649 6.97315 30.2593 7.22202 30.0675 7.55215C29.8756 7.88229 29.8107 8.27104 29.8848 8.64561L30.3875 11.1467C29.9967 11.2412 29.6144 11.3675 29.2443 11.5244L28.2549 10.04L29.2306 7.1127C29.4191 6.54559 29.3841 5.92793 29.1326 5.38578C28.8812 4.84364 28.4323 4.41788 27.8777 4.19541L25.8304 3.37656V2.34375C25.8304 2.13655 25.7481 1.93784 25.6016 1.79132C25.4551 1.64481 25.2564 1.5625 25.0492 1.5625C24.842 1.5625 24.6433 1.64481 24.4967 1.79132C24.3502 1.93784 24.2679 2.13655 24.2679 2.34375V3.37686L22.219 4.1957C21.6644 4.41823 21.2156 4.84399 20.9641 5.38611C20.7127 5.92823 20.6776 6.54586 20.866 7.11299L21.8419 10.0403L20.8524 11.5247C20.4823 11.3678 20.1 11.2415 19.7092 11.147L20.2121 8.64522C20.2862 8.27095 20.2214 7.88249 20.0298 7.55254C19.8382 7.2226 19.5329 6.97377 19.1711 6.85264L18.1243 6.50107L18.1145 6.49785C18.0822 6.4874 18.0491 6.47979 18.0169 6.47061V5.46875C18.0169 5.26155 17.9345 5.06284 17.788 4.91632C17.6415 4.76981 17.4428 4.6875 17.2356 4.6875C17.0284 4.6875 16.8297 4.76981 16.6832 4.91632C16.5367 5.06284 16.4544 5.26155 16.4544 5.46875V6.47061C16.4216 6.47979 16.3886 6.4875 16.3567 6.49785L16.3469 6.50107L15.302 6.85215C14.9398 6.97311 14.6342 7.22198 14.4423 7.55212C14.2504 7.88226 14.1855 8.27104 14.2597 8.64561L14.8835 11.7497C14.3769 12.1915 14.0179 12.7779 13.8549 13.43L13.3536 15.4351C13.3173 15.58 13.3234 15.7323 13.3711 15.8739C13.4188 16.0155 13.5061 16.1404 13.6227 16.2339C13.7392 16.3274 13.8801 16.3855 14.0287 16.4013C14.1773 16.4172 14.3273 16.3901 14.4609 16.3232L16.5177 15.2949C16.7644 15.1707 17.0333 15.0967 17.3087 15.0771C17.5842 15.0575 17.8609 15.0928 18.1226 15.1809C18.742 15.3884 19.275 15.7956 19.6381 16.3386C19.8531 16.6591 20.0024 17.0192 20.0773 17.3978C20.1522 17.7765 20.1513 18.1662 20.0746 18.5445L19.6278 20.7787L17.7674 23.4262C17.5915 23.5904 17.3653 23.6903 17.1254 23.7098C16.8855 23.7293 16.6461 23.6672 16.446 23.5336L16.4157 23.5135C16.227 23.3883 16.0821 23.2073 16.0011 22.9958C15.9201 22.7844 15.9071 22.5529 15.9638 22.3337C16.04 22.043 16.1182 21.7389 16.1884 21.4638C16.297 21.0336 16.2813 20.5815 16.1433 20.1598C16.0053 19.7382 15.7506 19.3644 15.4086 19.0816L2.88785 8.77148C2.7551 8.66211 2.58997 8.5996 2.41807 8.59365C2.24617 8.5877 2.07712 8.63865 1.93713 8.73858C1.79714 8.83852 1.69404 8.98186 1.64383 9.14637C1.59362 9.31088 1.5991 9.48736 1.65943 9.64844L2.96021 13.1173C3.6922 15.0664 4.91753 16.7922 6.51636 18.1259L6.87496 18.4246L3.2691 17.9739C3.12059 17.9554 2.96987 17.9798 2.83487 18.0444C2.69987 18.1091 2.58627 18.2111 2.50758 18.3384C2.4289 18.4657 2.38844 18.6129 2.39101 18.7626C2.39359 18.9122 2.4391 19.058 2.52212 19.1825C3.62605 20.8453 5.22768 22.1163 7.09781 22.8135L7.65132 23.021L3.86714 23.4414C3.70468 23.4595 3.55198 23.528 3.43053 23.6374C3.30909 23.7469 3.22502 23.8916 3.19017 24.0513C3.15532 24.211 3.17145 24.3776 3.23627 24.5277C3.30109 24.6777 3.41135 24.8037 3.55152 24.8878L4.92115 25.71C6.56058 26.6955 8.36081 27.3845 10.2393 27.7454C9.04332 28.567 8.01507 29.6092 7.20972 30.8162C7.13116 30.9339 7.08603 31.0707 7.07915 31.212C7.07227 31.3534 7.1039 31.4939 7.17067 31.6186C7.23744 31.7434 7.33683 31.8477 7.45824 31.9203C7.57965 31.993 7.71852 32.0313 7.86002 32.0312H8.16812C9.68464 32.0326 11.1818 31.6909 12.5475 31.0315V32.8125C12.5475 32.967 12.5934 33.118 12.6792 33.2465C12.7651 33.3749 12.8871 33.475 13.0298 33.5341C13.1726 33.5932 13.3296 33.6087 13.4811 33.5786C13.6327 33.5485 13.7718 33.4741 13.8811 33.3648L15.6725 31.5735L16.6826 32.5836C16.7643 32.6653 16.8632 32.7279 16.972 32.7668C17.0808 32.8057 17.1969 32.82 17.312 32.8086C17.427 32.7972 17.538 32.7605 17.6371 32.701C17.7362 32.6415 17.8209 32.5607 17.885 32.4646L18.5808 31.4209C18.8232 31.0568 19.1715 30.7759 19.5788 30.6162V30.7343C19.5776 31.3558 19.3313 31.9518 18.8935 32.3929L18.3388 32.9476C17.7392 33.544 17.2638 34.2535 16.9403 35.035C16.6167 35.8164 16.4513 36.6542 16.4538 37.5C16.4539 37.6916 16.5244 37.8765 16.652 38.0196C16.7795 38.1626 16.9552 38.2537 17.1456 38.2757L16.6969 39.173L15.7217 39.4171L13.7283 37.1877C13.998 36.7593 14.1217 36.2549 14.0806 35.7503C14.0396 35.2457 13.8361 34.768 13.5007 34.3888C13.1653 34.0095 12.716 33.7492 12.2202 33.6468C11.7244 33.5445 11.2087 33.6056 10.7506 33.8209C10.2924 34.0363 9.91634 34.3944 9.67882 34.8415C9.44129 35.2886 9.35508 35.8007 9.43309 36.3009C9.5111 36.8011 9.74914 37.2626 10.1115 37.6161C10.4739 37.9697 10.9411 38.1963 11.4431 38.2619C11.5446 38.2752 11.6469 38.2819 11.7493 38.2819C12.0039 38.2812 12.2568 38.2387 12.4976 38.1559L14.0084 39.8453L13.9205 39.8673C13.8209 39.8922 13.7273 39.9364 13.6448 39.9975C13.5624 40.0586 13.4928 40.1353 13.44 40.2233C13.3334 40.401 13.3017 40.6137 13.352 40.8147C13.4023 41.0158 13.5303 41.1886 13.708 41.2952C13.8857 41.4018 14.0984 41.4335 14.2995 41.3832L15.1881 41.1611L15.8738 41.9218C15.9425 41.998 16.0255 42.0599 16.1181 42.104C16.2108 42.1482 16.3112 42.1736 16.4136 42.1789C16.5161 42.1842 16.6186 42.1693 16.7153 42.135C16.812 42.1007 16.901 42.0477 16.9772 41.979C17.0534 41.9103 17.1153 41.8273 17.1595 41.7346C17.2036 41.642 17.229 41.5416 17.2343 41.4391C17.2397 41.3367 17.2247 41.2342 17.1904 41.1375C17.1561 41.0408 17.1031 40.9518 17.0344 40.8756L16.9049 40.7319L17.4249 40.602C17.5342 40.5746 17.6363 40.5239 17.7242 40.4534C17.8121 40.3829 17.8837 40.2942 17.9341 40.1934L18.8897 38.2812H19.5788C19.7239 38.2812 19.8661 38.2408 19.9895 38.1645C20.1129 38.0882 20.2126 37.9791 20.2775 37.8493C20.6032 37.1939 21.0864 36.6295 21.6837 36.2067L21.9059 36.54L20.0631 39.7648C19.2344 41.2167 18.7982 42.8595 18.7975 44.5312C18.7975 44.7384 18.8798 44.9372 19.0263 45.0837C19.1728 45.2302 19.3716 45.3125 19.5788 45.3125C19.786 45.3125 19.9847 45.2302 20.1312 45.0837C20.2777 44.9372 20.36 44.7384 20.36 44.5312C20.3606 43.1314 20.7259 41.7559 21.4199 40.5401L22.487 38.6728L22.3934 38.9065C21.5503 41.0023 21.3936 43.3115 21.9459 45.502C21.9704 45.6019 22.0144 45.696 22.0753 45.7789C22.1363 45.8618 22.2131 45.9318 22.3012 45.9849C22.3893 46.0381 22.487 46.0733 22.5888 46.0885C22.6905 46.1038 22.7943 46.0988 22.8941 46.0738C22.994 46.0489 23.0879 46.0044 23.1705 45.9431C23.2531 45.8817 23.3227 45.8047 23.3755 45.7163C23.4282 45.628 23.463 45.5301 23.4778 45.4282C23.4926 45.3264 23.4871 45.2227 23.4617 45.1229C22.9898 43.2511 23.1238 41.2778 23.8442 39.4868L23.854 39.462L24.2661 40.0802V47.6562C24.2661 47.8634 24.3484 48.0622 24.4949 48.2087C24.6414 48.3552 24.8401 48.4375 25.0473 48.4375C25.2545 48.4375 25.4532 48.3552 25.5997 48.2087C25.7463 48.0622 25.8286 47.8634 25.8286 47.6562V40.0798L26.2407 39.4616L26.2504 39.4864C26.9709 41.2774 27.1048 43.2507 26.633 45.1226C26.6075 45.2223 26.6021 45.326 26.6169 45.4278C26.6317 45.5297 26.6664 45.6276 26.7192 45.7159C26.7719 45.8043 26.8416 45.8813 26.9242 45.9427C27.0068 46.0041 27.1007 46.0485 27.2005 46.0734C27.3003 46.0984 27.4041 46.1034 27.5059 46.0881C27.6076 46.0729 27.7054 46.0377 27.7935 45.9845C27.8816 45.9314 27.9583 45.8614 28.0193 45.7785C28.0803 45.6956 28.1243 45.6015 28.1488 45.5016C28.7009 43.3111 28.5442 41.0019 27.7011 38.9062L27.6076 38.6718L28.6748 40.5395C29.369 41.7553 29.7344 43.1311 29.735 44.5312C29.735 44.7384 29.8173 44.9372 29.9638 45.0837C30.1104 45.2302 30.3091 45.3125 30.5163 45.3125C30.7235 45.3125 30.9222 45.2302 31.0687 45.0837C31.2152 44.9372 31.2975 44.7384 31.2975 44.5312C31.2968 42.8595 30.8605 41.2167 30.0318 39.7648L28.1889 36.54L28.4111 36.2067C29.0084 36.6296 29.4916 37.1939 29.8173 37.8493C29.8822 37.9791 29.982 38.0883 30.1054 38.1646C30.2289 38.2409 30.3711 38.2813 30.5163 38.2812H31.2053L32.1613 40.1931C32.2116 40.2938 32.2832 40.3824 32.371 40.4529C32.4588 40.5234 32.5608 40.5741 32.67 40.6015L34.6909 41.1084C34.9051 41.5924 35.2388 42.0141 35.6605 42.3338C36.0823 42.6536 36.5784 42.861 37.1023 42.9366C37.6262 43.0121 38.1606 42.9534 38.6556 42.7659C39.1506 42.5784 39.5898 42.2682 39.9321 41.8645C40.2744 41.4608 40.5085 40.9767 40.6125 40.4577C40.7166 39.9388 40.6871 39.4019 40.5268 38.8974C40.3665 38.393 40.0808 37.9375 39.6963 37.5737C39.3119 37.2099 38.8413 36.9497 38.3288 36.8176V35.9375C38.3288 35.7303 38.2465 35.5316 38.0999 35.3851C37.9534 35.2386 37.7547 35.1562 37.5475 35.1562C37.3403 35.1562 37.1416 35.2386 36.9951 35.3851C36.8486 35.5316 36.7663 35.7303 36.7663 35.9375V36.8176C36.1635 36.9745 35.6212 37.3075 35.2086 37.7741C34.796 38.2406 34.5319 38.8196 34.4499 39.437L33.3983 39.1733L32.9491 38.2758C33.1395 38.2539 33.3153 38.1628 33.443 38.0197C33.5706 37.8767 33.6412 37.6917 33.6413 37.5C33.6437 36.6543 33.4784 35.8164 33.1549 35.035C32.8314 34.2536 32.3561 33.5441 31.7565 32.9476L31.2018 32.3929C30.764 31.9517 30.5178 31.3558 30.5166 30.7343V30.6162C30.9238 30.7759 31.2721 31.0568 31.5145 31.4209L32.2103 32.4646C32.2744 32.5607 32.3591 32.6415 32.4582 32.701C32.5573 32.7605 32.6683 32.7972 32.7834 32.8086C32.8984 32.82 33.0145 32.8057 33.1233 32.7668C33.2322 32.7279 33.331 32.6653 33.4127 32.5836L34.4228 31.5735L36.2141 33.3648C36.3234 33.474 36.4626 33.5483 36.6141 33.5784C36.7655 33.6085 36.9226 33.593 37.0653 33.5339C37.2079 33.4748 37.3299 33.3747 37.4158 33.2463C37.5016 33.1179 37.5474 32.967 37.5475 32.8125V31.0312C38.9132 31.6906 40.4104 32.0325 41.9269 32.0312H42.235C42.3764 32.0312 42.5152 31.9929 42.6365 31.9202C42.7578 31.8475 42.8571 31.7433 42.9238 31.6186C42.9905 31.4939 43.0222 31.3535 43.0153 31.2122C43.0085 31.071 42.9635 30.9343 42.885 30.8166C42.0797 29.6096 41.0515 28.5674 39.8555 27.7458C41.734 27.3849 43.5342 26.6959 45.1736 25.7104L46.5432 24.8886C46.6834 24.8045 46.7936 24.6785 46.8585 24.5285C46.9233 24.3784 46.9394 24.2118 46.9046 24.0521C46.8697 23.8924 46.7856 23.7476 46.6642 23.6382C46.5428 23.5288 46.3901 23.4602 46.2276 23.4422L42.4434 23.0218L42.9968 22.8143C44.867 22.117 46.4687 20.8461 47.5726 19.1833C47.6558 19.0588 47.7014 18.9129 47.704 18.7632C47.7067 18.6135 47.6662 18.4661 47.5875 18.3387C47.5087 18.2114 47.3951 18.1093 47.26 18.0447C47.1249 17.9801 46.974 17.9556 46.8254 17.9743L43.2196 18.425L43.5782 18.1263C45.1771 16.7926 46.4025 15.0668 47.1345 13.1177ZM11.6464 36.7119C11.4501 36.6858 11.271 36.586 11.1454 36.4329C11.0198 36.2797 10.9571 36.0846 10.9699 35.8869C10.9827 35.6893 11.0702 35.5039 11.2145 35.3682C11.3588 35.2326 11.5493 35.1568 11.7473 35.1562C11.9087 35.156 12.0663 35.2058 12.1982 35.2988C12.3301 35.3918 12.43 35.5234 12.4839 35.6756C12.5379 35.8277 12.5433 35.9929 12.4995 36.1482C12.4556 36.3036 12.3646 36.4415 12.2391 36.543C12.2239 36.5534 12.209 36.5647 12.1944 36.5764C12.0351 36.6884 11.8396 36.7368 11.6464 36.7119ZM37.5475 41.4062C37.2736 41.4059 37.0046 41.3335 36.7674 41.1964C36.5303 41.0593 36.3334 40.8622 36.1964 40.625H38.8986C38.7616 40.8622 38.5647 41.0593 38.3276 41.1964C38.0905 41.3335 37.8214 41.4059 37.5475 41.4062ZM38.8986 39.0625H38.3288V38.4927C38.565 38.6298 38.7614 38.8262 38.8986 39.0625ZM36.7663 38.4927V39.0625H36.1964C36.3336 38.8261 36.53 38.6296 36.7663 38.4923V38.4927ZM21.1413 21.875H28.9538V30.9051C28.9539 31.0691 28.9024 31.229 28.8065 31.362C28.7106 31.4951 28.5752 31.5946 28.4196 31.6463L25.0475 32.7703L21.6754 31.6463C21.5198 31.5946 21.3844 31.4951 21.2885 31.362C21.1926 31.229 21.1411 31.0691 21.1413 30.9051V21.875ZM34.2777 13.8975C33.8477 13.6809 33.379 13.5519 32.8987 13.5177C32.4185 13.4836 31.9363 13.545 31.4799 13.6985C30.5312 14.0165 29.7147 14.6401 29.1584 15.4718C28.8291 15.9628 28.6004 16.5143 28.4856 17.0943C28.3709 17.6743 28.3723 18.2712 28.4898 18.8507L28.7821 20.3125H25.9483L26.346 17.5293C26.5453 16.1335 27.2415 14.8564 28.3067 13.9326C29.3718 13.0087 30.7345 12.5001 32.1445 12.5H33.0488C33.4342 12.4999 33.8086 12.6287 34.1124 12.8658C34.4163 13.1029 34.6322 13.4347 34.7258 13.8086L34.8152 14.1657L34.2777 13.8975ZM31.4212 8.33389L32.4626 7.98418C32.7212 7.90312 32.9984 7.90312 33.257 7.98418L34.305 8.33799L33.7665 11.0178C33.5309 10.9647 33.2902 10.9377 33.0488 10.9372H32.1445C32.0759 10.9372 32.0076 10.9382 31.9394 10.9401L31.4212 8.33389ZM22.7994 5.64648L25.0475 4.74717L27.2958 5.64648C27.4806 5.72065 27.6302 5.86256 27.714 6.04325C27.7978 6.22395 27.8095 6.42982 27.7467 6.61885L26.8282 9.375H23.2668L22.3483 6.61934C22.2854 6.43023 22.297 6.22423 22.3808 6.04342C22.4647 5.86261 22.6144 5.72063 22.7994 5.64648ZM23.1216 10.937H26.973L27.8726 12.2864C26.523 13.2396 25.529 14.6149 25.0473 16.1955C24.5656 14.615 23.5716 13.2397 22.222 12.2864L23.1216 10.937ZM16.8376 7.98418C17.0961 7.90298 17.3734 7.90298 17.632 7.98418L18.68 8.33789L18.1571 10.94C18.0885 10.9382 18.0196 10.9372 17.9505 10.9371H17.0462C16.8052 10.9376 16.5648 10.9645 16.3296 11.0175L15.7961 8.33389L16.8376 7.98418ZM18.6149 13.6985C18.1586 13.545 17.6763 13.4835 17.1961 13.5177C16.7158 13.5518 16.2472 13.6809 15.8171 13.8975L15.28 14.1661L15.3693 13.8089C15.4629 13.435 15.6787 13.1031 15.9826 12.8659C16.2864 12.6288 16.6608 12.5 17.0462 12.5H17.9505C19.3605 12.5 20.7232 13.0086 21.7884 13.9325C22.8536 14.8563 23.5497 16.1334 23.7491 17.5293L24.1467 20.3125H21.313L21.6052 18.8515C21.7227 18.272 21.7241 17.675 21.6094 17.095C21.4946 16.5151 21.266 15.9636 20.9367 15.4726C20.3804 14.6406 19.5639 14.0167 18.6151 13.6985H18.6149ZM17.2805 30.554L17.1133 30.8047L16.2247 29.916C16.0782 29.7695 15.8795 29.6872 15.6723 29.6872C15.4651 29.6872 15.2664 29.7695 15.1199 29.916L14.1098 30.9261V29.6875C14.1098 29.5461 14.0715 29.4073 13.9988 29.286C13.9261 29.1647 13.8219 29.0653 13.6972 28.9986C13.5725 28.9319 13.4321 28.9002 13.2908 28.9071C13.1496 28.9139 13.0128 28.959 12.8952 29.0374C11.8941 29.7061 10.7623 30.1544 9.57486 30.3525C10.3577 29.5319 11.2765 28.8528 12.2907 28.3452L12.8961 28.0425C13.0437 27.9687 13.1641 27.8502 13.2402 27.7038C13.3162 27.5574 13.3439 27.3907 13.3194 27.2275C13.2949 27.0644 13.2194 26.9132 13.1036 26.7957C12.9879 26.6781 12.838 26.6002 12.6752 26.573L10.9057 26.2781C9.31995 26.0152 7.78793 25.4944 6.37046 24.7363L11.0712 24.2141C11.2458 24.1947 11.4087 24.1171 11.5337 23.9937C11.6588 23.8704 11.7386 23.7085 11.7603 23.5343C11.782 23.36 11.7444 23.1835 11.6535 23.0332C11.5626 22.883 11.4238 22.7677 11.2593 22.7061L7.64673 21.3508C6.69461 20.9954 5.8198 20.4601 5.07007 19.774L9.32544 20.306C9.493 20.3269 9.66282 20.293 9.80949 20.2093C9.95616 20.1257 10.0718 19.9967 10.139 19.8418C10.2063 19.687 10.2215 19.5144 10.1825 19.3502C10.1434 19.1859 10.0522 19.0387 9.92251 18.9306L7.51695 16.9259C6.12614 15.7658 5.06027 14.2646 4.42359 12.569L4.14751 11.8329L14.4139 20.2876C14.5273 20.3812 14.6119 20.5051 14.6577 20.6448C14.7036 20.7845 14.7089 20.9343 14.6731 21.077C14.6035 21.3492 14.526 21.6501 14.4507 21.9378C14.3117 22.4717 14.3426 23.0358 14.5393 23.5513C14.736 24.0668 15.0886 24.5081 15.5479 24.8138L15.5782 24.8339C16.0899 25.1752 16.7051 25.3263 17.3167 25.261C17.9283 25.1957 18.4976 24.918 18.9257 24.4764C18.9543 24.447 18.9804 24.4153 19.0039 24.3817L19.5786 23.5639V25.3906L19.0196 25.8099C18.4896 26.2064 17.8499 26.4292 17.1882 26.4475C16.5266 26.4659 15.8755 26.2789 15.3244 25.9124C15.239 25.8555 15.1433 25.816 15.0426 25.796C14.942 25.7761 14.8384 25.7762 14.7378 25.7964C14.6372 25.8165 14.5415 25.8562 14.4563 25.9133C14.371 25.9704 14.2979 26.0437 14.241 26.1291C14.1841 26.2145 14.1445 26.3102 14.1246 26.4109C14.1047 26.5115 14.1048 26.6151 14.1249 26.7157C14.1451 26.8163 14.1848 26.9119 14.2419 26.9972C14.299 27.0824 14.3723 27.1556 14.4577 27.2125C15.213 27.715 16.0961 27.9916 17.0032 28.0098C17.9102 28.028 18.8037 27.787 19.5786 27.3152V28.9908C18.6383 29.1926 17.8138 29.7534 17.2807 30.5538L17.2805 30.554ZM30.6511 34.0521C31.3771 34.7741 31.8553 35.7077 32.0169 36.7188H30.977C30.3903 35.7469 29.5386 34.9625 28.5219 34.4574C28.3516 34.3723 28.1561 34.3522 27.972 34.4011C27.788 34.45 27.6281 34.5644 27.5225 34.7229L25.0475 38.4353L22.5725 34.7225C22.4669 34.564 22.3071 34.4497 22.123 34.4008C21.939 34.3519 21.7435 34.3719 21.5732 34.457C20.5564 34.9622 19.7047 35.7467 19.1179 36.7188H18.078C18.2398 35.708 18.7179 34.7746 19.4437 34.0527L19.9984 33.498C20.2075 33.2882 20.3917 33.0549 20.5474 32.8029C20.7408 32.9433 20.9546 33.0532 21.1813 33.1288L24.8004 34.3353C24.9608 34.3888 25.1342 34.3888 25.2946 34.3353L28.9136 33.1288C29.1404 33.0532 29.3542 32.9433 29.5476 32.8029C29.7033 33.0549 29.8876 33.2882 30.0966 33.498L30.6511 34.0521ZM42.578 16.9259L40.1724 18.9306C40.0427 19.0387 39.9515 19.1859 39.9125 19.3501C39.8735 19.5144 39.8887 19.6869 39.9559 19.8418C40.0231 19.9967 40.1387 20.1256 40.2854 20.2093C40.432 20.293 40.6018 20.3269 40.7694 20.306L45.025 19.774C44.2752 20.4601 43.4004 20.9955 42.4482 21.3508L38.8357 22.7056C38.6713 22.7672 38.5324 22.8825 38.4415 23.0327C38.3506 23.183 38.313 23.3595 38.3347 23.5338C38.3565 23.7081 38.4363 23.8699 38.5613 23.9932C38.6863 24.1166 38.8492 24.1942 39.0238 24.2136L43.7246 24.7358C42.3069 25.4939 40.7747 26.0148 39.1887 26.2777L37.4192 26.5727C37.2565 26.5998 37.1065 26.6777 36.9908 26.7953C36.8751 26.9128 36.7996 27.064 36.775 27.2271C36.7505 27.3903 36.7783 27.557 36.8543 27.7034C36.9303 27.8498 37.0507 27.9683 37.1983 28.0421L37.8038 28.3448C38.8179 28.8524 39.7367 29.5315 40.5195 30.3521C39.332 30.154 38.2003 29.7057 37.1992 29.037C37.0815 28.9587 36.9448 28.9137 36.8035 28.907C36.6623 28.9002 36.5219 28.9319 36.3973 28.9987C36.2727 29.0655 36.1685 29.1648 36.0959 29.2861C36.0233 29.4074 35.985 29.5461 35.985 29.6875V30.9264L34.975 29.9163C34.9024 29.8438 34.8163 29.7862 34.7215 29.7469C34.6267 29.7077 34.5251 29.6875 34.4225 29.6875C34.3199 29.6875 34.2183 29.7077 34.1235 29.7469C34.0287 29.7862 33.9426 29.8438 33.8701 29.9163L32.9814 30.805L32.8142 30.5543C32.2812 29.7537 31.4567 29.1928 30.5163 28.9909V27.3145C31.2912 27.7863 32.1846 28.0272 33.0917 28.009C33.9987 27.9908 34.8818 27.7142 35.6372 27.2117C35.8096 27.0968 35.9293 26.9181 35.9699 26.7149C36.0105 26.5117 35.9688 26.3007 35.8539 26.1283C35.7389 25.9559 35.5602 25.8362 35.357 25.7956C35.1539 25.755 34.9429 25.7967 34.7705 25.9116C34.2193 26.2782 33.5683 26.4651 32.9066 26.4467C32.245 26.4284 31.6053 26.2056 31.0753 25.8091L30.5163 25.3906V23.5645L31.091 24.3823C31.1145 24.4159 31.1406 24.4475 31.1691 24.477C31.5973 24.9186 32.1667 25.1962 32.7784 25.2614C33.39 25.3266 34.0052 25.1754 34.5168 24.834L34.5476 24.8136C35.0068 24.5079 35.3593 24.0666 35.5559 23.5512C35.7524 23.0357 35.7833 22.4718 35.6443 21.938C35.569 21.6503 35.4915 21.3493 35.4219 21.0771C35.3861 20.9344 35.3914 20.7846 35.4373 20.6449C35.4832 20.5052 35.5677 20.3813 35.6811 20.2877L45.9475 11.8329L45.6715 12.569C45.0348 14.2646 43.9688 15.7658 42.578 16.9259Z" fill="#0EADFF"/>
<path d="M22.9326 29.4583C23.0051 29.5309 23.0912 29.5884 23.186 29.6277C23.2808 29.6669 23.3824 29.6871 23.485 29.6871C23.5876 29.6871 23.6892 29.6669 23.784 29.6277C23.8788 29.5884 23.9649 29.5309 24.0374 29.4583C24.3101 29.1861 24.5104 28.8501 24.6201 28.4808C24.7298 28.1115 24.7455 27.7206 24.6657 27.3438H25.4718C25.7049 27.6649 25.8299 28.0517 25.8287 28.4485V28.9062C25.8287 29.1135 25.9111 29.3122 26.0576 29.4587C26.2041 29.6052 26.4028 29.6875 26.61 29.6875C26.8172 29.6875 27.0159 29.6052 27.1624 29.4587C27.3089 29.3122 27.3912 29.1135 27.3912 28.9062V28.4485C27.3932 27.6739 27.1322 26.9216 26.651 26.3146C26.7031 26.1594 26.8025 26.0245 26.9353 25.9288C27.0681 25.8331 27.2276 25.7815 27.3912 25.7812C27.5984 25.7812 27.7972 25.6989 27.9437 25.5524C28.0902 25.4059 28.1725 25.2072 28.1725 25C28.1725 24.7928 28.0902 24.5941 27.9437 24.4476C27.7972 24.3011 27.5984 24.2188 27.3912 24.2188C26.9068 24.2194 26.4343 24.3699 26.0388 24.6496C25.6432 24.9294 25.3439 25.3246 25.1819 25.7812H24.2662V24.2188C24.2662 24.0115 24.1839 23.8128 24.0374 23.6663C23.8909 23.5198 23.6922 23.4375 23.485 23.4375C23.2778 23.4375 23.0791 23.5198 22.9326 23.6663C22.7861 23.8128 22.7038 24.0115 22.7038 24.2188V26.5625C22.7039 26.6825 22.7318 26.8009 22.7853 26.9084C22.7853 26.9095 22.7853 26.9108 22.7863 26.9119L23.0734 27.4861C23.1441 27.6272 23.1685 27.787 23.1433 27.9427C23.118 28.0985 23.0442 28.2423 22.9326 28.3538C22.7862 28.5003 22.7039 28.6989 22.7039 28.9061C22.7039 29.1132 22.7862 29.3118 22.9326 29.4583Z" fill="#0EADFF"/>
</g>
<defs>
<clipPath id="clip0">
<rect width="50" height="50" fill="white" transform="translate(0.0480957)"/>
</clipPath>
</defs>
</svg>
