<svg xmlns="http://www.w3.org/2000/svg" width="154" height="158" viewBox="0 0 154 158"><defs><mask id="o2nnb" width="2" height="2" x="-1" y="-1"><path fill="#fff" d="M68 44h18v22H68z"/><path d="M76.99 66.004l-6.268-6.346.003-.003c-.035-.034-.071-.066-.106-.102-3.518-3.562-3.518-9.338 0-12.901a8.93 8.93 0 0 1 12.742 0c3.519 3.563 3.519 9.339 0 12.902-.059.058-.12.114-.18.172l.005.005z"/></mask><filter id="o2nna" width="174" height="202" x="-10" y="-34" filterUnits="userSpaceOnUse"><feOffset dy="24" in="SourceGraphic" result="FeOffset1041Out"/><feGaussianBlur in="FeOffset1041Out" result="FeGaussianBlur1042Out" stdDeviation="27.2 27.2"/></filter><linearGradient id="o2nnc" x1="67.98" x2="85.98" y1="55" y2="54.98" gradientUnits="userSpaceOnUse"><stop offset="0" stop-color="#fff" stop-opacity=".21"/><stop offset="1" stop-color="#000001" stop-opacity=".21"/></linearGradient></defs><g><g><g filter="url(#o2nna)"><path fill="none" d="M76.99 66.004l-6.268-6.346.003-.003c-.035-.034-.071-.066-.106-.102-3.518-3.562-3.518-9.338 0-12.901a8.93 8.93 0 0 1 12.742 0c3.519 3.563 3.519 9.339 0 12.902-.059.058-.12.114-.18.172l.005.005z" mask="url(&quot;#o2nnb&quot;)"/><path fill-opacity=".3" d="M76.99 66.004l-6.268-6.346.003-.003c-.035-.034-.071-.066-.106-.102-3.518-3.562-3.518-9.338 0-12.901a8.93 8.93 0 0 1 12.742 0c3.519 3.563 3.519 9.339 0 12.902-.059.058-.12.114-.18.172l.005.005z"/></g><path fill="#ff8000" d="M76.99 66.004l-6.268-6.346.003-.003c-.035-.034-.071-.066-.106-.102-3.518-3.562-3.518-9.338 0-12.901a8.93 8.93 0 0 1 12.742 0c3.519 3.563 3.519 9.339 0 12.902-.059.058-.12.114-.18.172l.005.005z"/><path fill="url(#o2nnc)" d="M76.99 66.004l-6.268-6.346.003-.003c-.035-.034-.071-.066-.106-.102-3.518-3.562-3.518-9.338 0-12.901a8.93 8.93 0 0 1 12.742 0c3.519 3.563 3.519 9.339 0 12.902-.059.058-.12.114-.18.172l.005.005z"/></g></g></svg>