<svg width="71" height="71" viewBox="0 0 71 71" fill="none" xmlns="http://www.w3.org/2000/svg">
<g clip-path="url(#clip0)">
<path d="M66.1475 34.3438C61.4396 34.3438 57.0696 32.0057 54.4577 28.0873L53.5206 26.6817L52.5836 28.0873C49.9717 32.0057 45.6017 34.3438 40.8938 34.3438H36.6263V52.405C36.6263 56.7705 38.5917 60.8736 41.8759 63.6274H18.6057V59.1222H33.2474V38.849H9.59535V47.8593H2.83762V2.80775H52.3943V23.081H54.6469V0.555176H0.585037V49.4519L17.0131 65.8799H45.3381L53.5206 70.5552L63.0378 65.1174C67.588 62.518 70.415 57.6456 70.415 52.405V34.3438H66.1475ZM16.3531 62.0348L4.43019 50.1119H16.3531V62.0348ZM11.8479 47.8593V41.1016H30.9948V56.8696H18.6057V47.8593H11.8479ZM68.1624 52.405C68.1624 56.8403 65.7701 60.9614 61.9205 63.1622L53.5206 67.9625L45.1208 63.1622C41.2711 60.9614 38.8789 56.8403 38.8789 52.405V36.5964H40.8938C45.8269 36.5964 50.4402 34.3833 53.5206 30.6068C56.601 34.3833 61.2143 36.5964 66.1475 36.5964H68.1624V52.405Z" fill="#0EADFF"/>
<path d="M63.6572 45.6069V52.4052C63.6572 55.2277 62.1345 57.8508 59.6848 59.2508L60.8021 61.206C63.9523 59.4062 65.9098 56.0341 65.9098 52.4052V45.6069H63.6572Z" fill="#0EADFF"/>
<path d="M7.34277 5.06006V11.8178H47.8892V5.06006H7.34277ZM45.6366 9.56521H9.59535V7.31264H45.6366V9.56521Z" fill="#0EADFF"/>
<path d="M62.8609 39.1792L47.8892 54.151L44.1803 50.4421L42.5877 52.0347L47.8892 57.3361L64.4535 40.7718L62.8609 39.1792Z" fill="#0EADFF"/>
<path d="M28.7423 43.354H14.1005V45.6066H28.7423V43.354Z" fill="#0EADFF"/>
<path d="M28.7423 47.8594H20.8582V50.112H28.7423V47.8594Z" fill="#0EADFF"/>
<path d="M28.7423 52.3647H20.8582V54.6173H28.7423V52.3647Z" fill="#0EADFF"/>
<path d="M43.384 16.3232H7.34277V18.5758H43.384V16.3232Z" fill="#0EADFF"/>
<path d="M43.384 20.8286H7.34277V23.0812H43.384V20.8286Z" fill="#0EADFF"/>
<path d="M43.384 25.3335H7.34277V27.5861H43.384V25.3335Z" fill="#0EADFF"/>
<path d="M28.7423 29.8389H7.34277V32.0914H28.7423V29.8389Z" fill="#0EADFF"/>
<path d="M28.7423 34.3438H7.34277V36.5963H28.7423V34.3438Z" fill="#0EADFF"/>
<path d="M47.8892 16.3232H45.6366V18.5758H47.8892V16.3232Z" fill="#0EADFF"/>
<path d="M47.8892 20.8286H45.6366V23.0812H47.8892V20.8286Z" fill="#0EADFF"/>
<path d="M47.8892 25.3335H45.6366V27.5861H47.8892V25.3335Z" fill="#0EADFF"/>
<path d="M33.2474 29.8389H30.9948V32.0914H33.2474V29.8389Z" fill="#0EADFF"/>
<path d="M33.2474 34.3438H30.9948V36.5963H33.2474V34.3438Z" fill="#0EADFF"/>
</g>
<defs>
<clipPath id="clip0">
<rect width="70" height="70" fill="white" transform="translate(0.5 0.555176)"/>
</clipPath>
</defs>
</svg>
