<svg width="36" height="37" viewBox="0 0 36 37" fill="none" xmlns="http://www.w3.org/2000/svg">
<path d="M9.52775 31.2163L10.0978 31.5065C12.4735 32.9576 15.1339 33.6347 17.7945 33.6347C26.1563 33.6347 32.9977 26.6696 32.9977 18.1567C32.9977 14.0938 31.3823 10.1275 28.5318 7.22536C25.6811 4.32319 21.8802 2.67871 17.7945 2.67871C9.4328 2.67871 2.59126 9.64381 2.68634 18.2535C2.68634 21.1556 3.54152 23.9611 4.96677 26.3794L5.34681 26.9599L3.82662 32.6674L9.52775 31.2163Z" fill="#00E676"/>
<path d="M30.1471 5.67744C26.9164 2.29169 22.4505 0.453613 17.8895 0.453613C8.19759 0.453613 0.405932 8.48281 0.500876 18.2533C0.500876 21.3489 1.35605 24.3479 2.78143 27.0565L0.310852 36.2466L9.52776 33.8281C12.0933 35.2793 14.9438 35.9564 17.7945 35.9564C27.3915 35.9564 35.1832 27.9271 35.1832 18.1568C35.1832 13.4165 33.3777 8.96653 30.1472 5.67744H30.1471ZM17.8895 32.9576C15.324 32.9576 12.7584 32.2806 10.573 30.9262L10.0029 30.636L4.49179 32.087L5.91703 26.573L5.53699 25.9925C1.35605 19.1242 3.35151 10.0306 10.1929 5.7741C17.0343 1.51771 25.8712 3.54924 30.0521 10.5143C34.2329 17.4794 32.2375 26.4761 25.3962 30.7326C23.2106 32.1836 20.5501 32.9575 17.8895 32.9575V32.9576ZM26.2512 22.2198L25.206 21.7361C25.206 21.7361 23.6858 21.0589 22.7356 20.5752C22.6405 20.5752 22.5456 20.4784 22.4505 20.4784C22.1654 20.4784 21.9753 20.5752 21.7853 20.672C21.7853 20.672 21.6904 20.7687 20.3601 22.3165C20.265 22.51 20.075 22.6068 19.8849 22.6068H19.7899C19.6949 22.6068 19.5049 22.51 19.4098 22.4133L18.9347 22.2198C17.8895 21.7361 16.9394 21.1556 16.1791 20.3818C15.9891 20.1883 15.704 19.9948 15.514 19.8014C14.8488 19.1242 14.1837 18.3502 13.7087 17.4796L13.6136 17.2861C13.5187 17.1893 13.5187 17.0927 13.4236 16.8992C13.4236 16.7057 13.4236 16.5123 13.5187 16.4155C13.5187 16.4155 13.8987 15.9318 14.1837 15.6417C14.3738 15.4481 14.4688 15.1579 14.6588 14.9645C14.8488 14.6742 14.9439 14.2873 14.8488 13.997C14.7539 13.5133 13.6136 10.9014 13.3286 10.321C13.1385 10.0308 12.9486 9.93411 12.6635 9.83731H11.6183C11.4281 9.83731 11.2382 9.93411 11.0481 9.93411L10.953 10.0308C10.763 10.1276 10.573 10.321 10.3829 10.4177C10.1929 10.6113 10.0978 10.8046 9.90781 10.9982C9.24266 11.8688 8.86261 12.9329 8.86261 13.997C8.86261 14.7709 9.05263 15.5449 9.33774 16.222L9.43282 16.5123C10.288 18.3502 11.4281 19.9948 12.9486 21.4459L13.3286 21.8328C13.6136 22.123 13.8987 22.3165 14.0887 22.6066C16.0842 24.348 18.3646 25.6056 20.9301 26.2828C21.2152 26.3794 21.5953 26.3794 21.8804 26.4762H22.8305C23.3056 26.4762 23.8757 26.2828 24.2559 26.0893C24.5409 25.8958 24.7309 25.8958 24.9209 25.7024L25.1111 25.5088C25.3011 25.3153 25.4911 25.2187 25.6812 25.0252C25.8712 24.8317 26.0612 24.6383 26.1563 24.4447C26.3463 24.0578 26.4412 23.5741 26.5363 23.0905V22.4133C26.5363 22.4133 26.4412 22.3165 26.2512 22.2198Z" fill="white"/>
</svg>
