<svg width="34" height="32" viewBox="0 0 34 32" fill="none" xmlns="http://www.w3.org/2000/svg">
<path d="M16.8376 0.71875C7.8098 0.71875 0.491455 7.54101 0.491455 15.9568C0.491455 24.3727 7.8098 31.1949 16.8376 31.1949C25.8654 31.1949 33.1837 24.3727 33.1837 15.9568C33.1837 7.54101 25.8654 0.71875 16.8376 0.71875Z" fill="#40B3E0"/>
<path d="M24.7915 9.48431L21.8718 23.2068C21.8718 23.2068 21.4635 24.1585 20.3406 23.7017L13.6032 18.8864L11.1533 17.7826L7.02919 16.4884C7.02919 16.4884 6.39629 16.2791 6.33499 15.8223C6.27369 15.3655 7.04963 15.1181 7.04963 15.1181L23.4438 9.12288C23.4438 9.12288 24.7915 8.57074 24.7915 9.48431Z" fill="white"/>
<path d="M13.0854 23.0522C13.0854 23.0522 12.8887 23.0351 12.6435 22.3117C12.3987 21.5885 11.1532 17.7821 11.1532 17.7821L21.0551 11.9202C21.0551 11.9202 21.6269 11.5966 21.6064 11.9202C21.6064 11.9202 21.7085 11.9773 21.4021 12.2437C21.096 12.5103 13.6236 18.7718 13.6236 18.7718" fill="#D2E5F1"/>
<path d="M16.1864 20.7324L13.5216 22.9974C13.5216 22.9974 13.3132 23.1447 13.0853 23.0524L13.5956 18.8452" fill="#B5CFE4"/>
</svg>
