<svg width="77" height="56" viewBox="0 0 77 56" fill="none" xmlns="http://www.w3.org/2000/svg">
<path d="M70.0652 55.4292H7.50736C3.94715 55.4292 0.895508 52.5501 0.895508 48.8242V7.16257C0.895508 3.60608 3.77762 0.557617 7.50736 0.557617H70.0652C73.6254 0.557617 76.677 3.43672 76.677 7.16257V48.8242C76.5075 52.3807 73.6254 55.4292 70.0652 55.4292ZM7.33781 5.29963C6.32061 5.29963 5.47293 6.14643 5.47293 7.16257V48.8242C5.47293 49.8404 6.32061 50.6872 7.33781 50.6872H69.8957C70.9129 50.6872 71.7605 49.8404 71.7605 48.8242V7.16257C71.7605 6.14643 70.9129 5.29963 69.8957 5.29963H7.33781Z" fill="#9DDCFF"/>
<path d="M38.7013 32.3967C38.1927 32.3967 37.5146 32.2273 37.1755 31.8886L5.81168 4.79154C5.13354 4.11411 4.79443 3.09801 5.1335 2.08187C5.47257 1.23509 6.32027 0.557617 7.33748 0.557617H69.8957C70.9129 0.557617 71.7605 1.23509 72.0996 2.08187C72.4387 2.92865 72.0996 4.11411 71.4215 4.79154L40.0576 31.8886C39.8881 32.2273 39.2099 32.3967 38.7013 32.3967ZM13.7798 5.29964L38.7013 26.9773L63.6229 5.29964H13.7798Z" fill="#9DDCFF"/>
</svg>
