<svg width="71" height="71" viewBox="0 0 71 71" fill="none" xmlns="http://www.w3.org/2000/svg">
<g clip-path="url(#clip0)">
<path d="M46.4332 23.1406C46.4332 14.6308 39.51 7.70752 31.0002 7.70752C22.4905 7.70752 15.5672 14.6308 15.5672 23.1406C15.5672 31.6504 22.4905 38.5736 31.0002 38.5736C39.51 38.5736 46.4332 31.6504 46.4332 23.1406ZM43.6251 21.7734H37.8794C37.7547 18.3606 37.1657 15.177 36.188 12.6937C35.989 12.1879 35.7755 11.718 35.5491 11.2849C39.9035 12.9615 43.1086 16.9705 43.6251 21.7734ZM31.0002 35.8392C29.6266 35.8392 27.1325 31.9528 26.856 24.5078H35.1443C34.868 31.9528 32.3738 35.8392 31.0002 35.8392ZM26.856 21.7734C27.1325 14.3283 29.6266 10.4419 31.0002 10.4419C32.3738 10.4419 34.868 14.3283 35.1443 21.7734H26.856ZM26.4513 11.285C26.2251 11.718 26.0115 12.1879 25.8124 12.6937C24.8348 15.177 24.2458 18.3606 24.1211 21.7734H18.3754C18.8919 16.9705 22.097 12.9615 26.4513 11.285ZM18.3754 24.5078H24.1211C24.2458 27.9206 24.8348 31.1042 25.8124 33.5874C26.0115 34.0931 26.2249 34.563 26.4513 34.996C22.097 33.3197 18.8919 29.3106 18.3754 24.5078ZM35.5491 34.9962C35.7754 34.5632 35.9888 34.0933 36.188 33.5874C37.1657 31.1041 37.7547 27.9204 37.8794 24.5078H43.6251C43.1086 29.3107 39.9035 33.3197 35.5491 34.9962Z" fill="#0EADFF"/>
<path d="M62.8921 45.7534C58.3746 45.7534 55.4799 43.7184 54.4794 42.8804V28.9218C54.4794 28.1667 53.8671 27.5546 53.1122 27.5546C52.3572 27.5546 51.745 28.1667 51.745 28.9218V42.8403C49.3606 44.6745 46.3477 45.7534 43.3328 45.7534C42.5779 45.7534 41.9656 46.3654 41.9656 47.1205V56.2233C41.9656 57.5683 42.1881 58.9184 42.6246 60.1907H12.3805C11.0765 60.1907 10.0155 59.1298 10.0155 57.8258V5.155C10.0155 3.85098 11.0765 2.79004 12.3805 2.79004H49.38C50.6841 2.79004 51.745 3.85098 51.745 5.155V16.8687C51.745 17.6238 52.3572 18.2358 53.1122 18.2358C53.8671 18.2358 54.4794 17.6238 54.4794 16.8687V5.155C54.4794 2.34324 52.1918 0.0556641 49.38 0.0556641H12.3805C9.56862 0.0556641 7.28117 2.34324 7.28117 5.155V57.8256C7.28117 60.6374 9.56862 62.925 12.3805 62.925H43.9526C45.9238 66.0376 49.1851 68.6048 52.6096 69.9598C52.7712 70.0237 52.942 70.0557 53.1126 70.0557C53.2832 70.0557 53.454 70.0237 53.6156 69.9598C53.7237 69.917 56.2947 68.887 58.8788 66.729C62.3988 63.7894 64.2594 60.1567 64.2594 56.2233V47.1205C64.2593 46.3654 63.647 45.7534 62.8921 45.7534ZM61.5249 56.2233C61.5249 62.7152 54.9922 66.2956 53.1105 67.1919C48.8172 65.1606 44.7004 61.2904 44.7004 56.2231V48.4289C47.706 48.1677 50.6462 47.0351 53.0818 45.2597C54.4753 46.3336 57.3577 48.1046 61.5249 48.4341V56.2233Z" fill="#0EADFF"/>
<path d="M50.5629 54.5887C50.029 54.0548 49.1636 54.0548 48.6293 54.5887C48.0954 55.1226 48.0954 55.9883 48.6293 56.5222L50.9865 58.8795C51.5123 59.4054 52.394 59.4053 52.9201 58.8795L58.0633 53.7362C58.5972 53.2023 58.5972 52.3366 58.0633 51.8028C57.5294 51.2689 56.664 51.2689 56.1297 51.8028L51.9532 55.9792L50.5629 54.5887Z" fill="#0EADFF"/>
<path d="M37.2174 45.7202H18.1674C17.4124 45.7202 16.8002 46.3323 16.8002 47.0874C16.8002 47.8425 17.4124 48.4546 18.1674 48.4546H37.2174C37.9723 48.4546 38.5846 47.8425 38.5846 47.0874C38.5846 46.3323 37.9723 45.7202 37.2174 45.7202Z" fill="#0EADFF"/>
<path d="M37.2174 52.0869H24.3333C23.5783 52.0869 22.9661 52.699 22.9661 53.4541C22.9661 54.2092 23.5783 54.8213 24.3333 54.8213H37.2174C37.9723 54.8213 38.5846 54.2092 38.5846 53.4541C38.5846 52.699 37.9723 52.0869 37.2174 52.0869Z" fill="#0EADFF"/>
<path d="M54.2491 21.9622C53.8335 21.3442 52.9741 21.1684 52.3528 21.5835C51.7328 21.9978 51.5642 22.8599 51.9755 23.4798C52.3878 24.1013 53.2514 24.2678 53.8703 23.8571C54.4913 23.4451 54.6612 22.5814 54.2491 21.9622Z" fill="#0EADFF"/>
</g>
<defs>
<clipPath id="clip0">
<rect width="70" height="70" fill="white" transform="translate(0.770218 0.0556641)"/>
</clipPath>
</defs>
</svg>
