<svg width="130" height="79" viewBox="0 0 130 79" fill="none" xmlns="http://www.w3.org/2000/svg">
<path d="M127.609 42.487L127.609 42.5033L127.58 42.8227C125.843 61.512 109.973 76.2785 90.8307 76.2785H39.4738C19.1777 76.2785 2.56708 59.6822 2.56708 39.4124C2.56708 19.1427 19.1777 2.54639 39.4738 2.54639H127.731L127.628 36.484L127.627 36.5623L127.633 36.6403C127.702 37.5555 127.737 38.4799 127.737 39.4124C127.737 40.4213 127.696 41.4206 127.616 42.409L127.609 42.487Z" stroke="#9DDCFF" stroke-width="4"/>
<path d="M46.163 39.4124C46.163 43.2289 43.04 46.3516 39.2144 46.3516C35.3888 46.3516 32.2659 43.2289 32.2659 39.4124C32.2659 35.6046 35.3746 32.4874 39.1882 32.4732C43.0715 32.5892 46.163 35.7617 46.163 39.4124Z" stroke="#9DDCFF" stroke-width="4"/>
<path d="M72.1007 39.4124C72.1007 43.2289 68.9778 46.3516 65.1522 46.3516C61.3266 46.3516 58.2037 43.2289 58.2037 39.4124C58.2037 35.6046 61.3124 32.4874 65.126 32.4732C69.0093 32.5892 72.1007 35.7617 72.1007 39.4124Z" stroke="#9DDCFF" stroke-width="4"/>
<path d="M98.0385 39.4124C98.0385 43.2289 94.9156 46.3516 91.09 46.3516C87.2645 46.3516 84.1415 43.2289 84.1415 39.4124C84.1415 35.6046 87.2502 32.4874 91.0638 32.4732C94.9471 32.5892 98.0385 35.7617 98.0385 39.4124Z" stroke="#9DDCFF" stroke-width="4"/>
</svg>
