<svg width="71" height="51" viewBox="0 0 71 51" fill="none" xmlns="http://www.w3.org/2000/svg">
<g clip-path="url(#clip0)">
<path d="M34.2887 35.9175H36.8813V38.5101H34.2887V35.9175Z" fill="#0EADFF"/>
<path d="M39.4739 35.9175H42.0665V38.5101H39.4739V35.9175Z" fill="#0EADFF"/>
<path d="M44.6591 35.9175H47.2517V38.5101H44.6591V35.9175Z" fill="#0EADFF"/>
<path d="M52.4369 34.6211H55.0295V39.8063H52.4369V34.6211Z" fill="#0EADFF"/>
<path d="M57.6221 34.6211H60.2147V39.8063H57.6221V34.6211Z" fill="#0EADFF"/>
<path d="M62.8073 34.6211H65.3998V39.8063H62.8073V34.6211Z" fill="#0EADFF"/>
<path d="M67.9924 29.4361C69.4242 29.4361 70.585 28.2753 70.585 26.8435V19.0657C70.585 17.634 69.4242 16.4731 67.9924 16.4731H31.6962C30.2644 16.4731 29.1036 17.634 29.1036 19.0657V26.8435C29.1036 28.2753 30.2644 29.4361 31.6962 29.4361H32.9925V30.7324H31.6962C30.2644 30.7324 29.1036 31.8932 29.1036 33.325V41.1028C29.1036 42.5345 30.2644 43.6954 31.6962 43.6954H32.9925V46.288C32.9925 47.0038 33.5729 47.5843 34.2887 47.5843H39.4739C40.1898 47.5843 40.7702 47.0038 40.7702 46.288V43.6954H58.9184V46.288C58.9184 47.0038 59.4988 47.5843 60.2147 47.5843H65.3999C66.1157 47.5843 66.6962 47.0038 66.6962 46.288V43.6954H67.9924C69.4242 43.6954 70.585 42.5345 70.585 41.1028V33.325C70.585 31.8932 69.4242 30.7324 67.9924 30.7324H66.6962V29.4361H67.9924ZM31.6962 19.0657H67.9924V26.8435H31.6962V19.0657ZM40.7702 30.7324V29.4361H58.9184V30.7324H40.7702ZM35.585 29.4361H38.1776V30.7324H35.585V29.4361ZM38.1776 44.9917H35.585V43.6954H38.1776V44.9917ZM64.1036 44.9917H61.511V43.6954H64.1036V44.9917ZM67.9924 41.1028H31.6962V33.325H67.9924V41.1028ZM64.1036 30.7324H61.511V29.4361H64.1036V30.7324Z" fill="#0EADFF"/>
<path d="M34.2887 21.6582H36.8813V24.2508H34.2887V21.6582Z" fill="#0EADFF"/>
<path d="M39.4739 21.6582H42.0665V24.2508H39.4739V21.6582Z" fill="#0EADFF"/>
<path d="M44.6591 21.6582H47.2517V24.2508H44.6591V21.6582Z" fill="#0EADFF"/>
<path d="M52.4369 20.3618H55.0295V25.547H52.4369V20.3618Z" fill="#0EADFF"/>
<path d="M57.6221 20.3618H60.2147V25.547H57.6221V20.3618Z" fill="#0EADFF"/>
<path d="M62.8073 20.3618H65.3998V25.547H62.8073V20.3618Z" fill="#0EADFF"/>
<path d="M4.47393 11.2875C6.62155 11.2875 8.36282 9.54628 8.36282 7.39865C8.36282 5.25103 6.62155 3.50977 4.47393 3.50977C2.3263 3.50977 0.585037 5.25103 0.585037 7.39865C0.585037 9.54628 2.3263 11.2875 4.47393 11.2875ZM4.47393 6.10236C5.1898 6.10236 5.77022 6.68278 5.77022 7.39865C5.77022 8.11453 5.1898 8.69495 4.47393 8.69495C3.75805 8.69495 3.17763 8.11453 3.17763 7.39865C3.17763 6.68278 3.75805 6.10236 4.47393 6.10236Z" fill="#0EADFF"/>
<path d="M4.47393 50.1767C6.62155 50.1767 8.36282 48.4354 8.36282 46.2878C8.36282 44.1402 6.62155 42.3989 4.47393 42.3989C2.3263 42.3989 0.585037 44.1402 0.585037 46.2878C0.585037 48.4354 2.3263 50.1767 4.47393 50.1767ZM4.47393 44.9915C5.1898 44.9915 5.77022 45.5719 5.77022 46.2878C5.77022 47.0037 5.1898 47.5841 4.47393 47.5841C3.75805 47.5841 3.17763 47.0037 3.17763 46.2878C3.17763 45.5719 3.75805 44.9915 4.47393 44.9915Z" fill="#0EADFF"/>
<path d="M17.4369 13.8801H26.5109C28.6586 13.8801 30.3998 12.1389 30.3998 9.99125V7.39865C30.3998 6.68278 30.9803 6.10236 31.6961 6.10236H39.4739V3.50977H31.6961C29.5485 3.50977 27.8072 5.25103 27.8072 7.39865V9.99125C27.8072 10.7071 27.2268 11.2875 26.5109 11.2875H17.4369V9.99125C17.4369 7.84362 15.6956 6.10236 13.548 6.10236H10.9554V8.69495H13.548C14.2639 8.69495 14.8443 9.27537 14.8443 9.99125V22.9542H10.9554V25.5468H14.8443V33.3246C14.8443 34.0405 14.2639 34.6209 13.548 34.6209H7.06651C4.91889 34.6209 3.17763 36.3621 3.17763 38.5098V39.8061H5.77022V38.5098C5.77022 37.7939 6.35064 37.2135 7.06651 37.2135H13.548C15.6956 37.2135 17.4369 35.4722 17.4369 33.3246V32.0283H20.0295V37.2135C20.0295 38.6452 21.1903 39.8061 22.6221 39.8061H26.5109V37.2135H22.6221V24.2505H26.5109V21.6579H22.6221C21.1903 21.6579 20.0295 22.8188 20.0295 24.2505V29.4357H17.4369V13.8801Z" fill="#0EADFF"/>
<path d="M42.0665 4.80637C42.0665 6.95399 43.8078 8.69526 45.9554 8.69526C48.103 8.69526 49.8443 6.95399 49.8443 4.80637C49.8443 2.65875 48.103 0.91748 45.9554 0.91748C43.8078 0.91748 42.0665 2.65875 42.0665 4.80637ZM47.2517 4.80637C47.2517 5.52224 46.6713 6.10267 45.9554 6.10267C45.2395 6.10267 44.6591 5.52224 44.6591 4.80637C44.6591 4.0905 45.2395 3.51007 45.9554 3.51007C46.6713 3.51007 47.2517 4.0905 47.2517 4.80637Z" fill="#0EADFF"/>
<path d="M4.47393 28.1396C6.62155 28.1396 8.36282 26.3983 8.36282 24.2507C8.36282 22.1031 6.62155 20.3618 4.47393 20.3618C2.3263 20.3618 0.585037 22.1031 0.585037 24.2507C0.585037 26.3983 2.3263 28.1396 4.47393 28.1396ZM4.47393 22.9544C5.1898 22.9544 5.77022 23.5348 5.77022 24.2507C5.77022 24.9666 5.1898 25.547 4.47393 25.547C3.75805 25.547 3.17763 24.9666 3.17763 24.2507C3.17763 23.5348 3.75805 22.9544 4.47393 22.9544Z" fill="#0EADFF"/>
</g>
<defs>
<clipPath id="clip0">
<rect width="70" height="49.5833" fill="white" transform="translate(0.585037 0.593262)"/>
</clipPath>
</defs>
</svg>
