<svg width="46" height="51" viewBox="0 0 46 51" fill="none" xmlns="http://www.w3.org/2000/svg">
<g clip-path="url(#clip0)">
<path d="M24.2515 33.7072C23.8447 33.5634 23.2079 33.488 23.0838 33.1838C22.9568 32.8725 23.4129 32.6996 23.8186 32.9964C23.8186 32.9964 24.5673 33.5415 25.1457 32.9208C25.7212 32.3031 25.0598 31.6508 25.0598 31.6508C25.008 31.603 24.7351 31.3645 24.2919 31.2061C24.1647 30.0626 22.5222 30.1104 22.4647 31.2628C21.1769 31.7957 20.7975 33.7273 21.9189 34.5978C22.381 34.9602 23.0199 35.2134 23.6414 35.4331C23.786 35.4841 23.9282 35.5691 23.8874 35.8119C23.7775 36.4661 22.8633 36.2567 22.5169 36.0301C21.4795 35.4018 20.5243 36.8643 21.5149 37.5622C21.8726 37.7961 22.165 37.9278 22.4682 37.9996C22.6046 39.1493 24.2605 39.0797 24.2951 37.9172V37.8907C25.0151 37.5843 25.556 36.9287 25.6927 36.1154C25.8728 35.0433 25.2937 34.0755 24.2515 33.7072Z" fill="#0EADFF"/>
<path d="M38.7336 30.297C38.3268 30.1532 37.69 30.0778 37.5659 29.7736C37.4388 29.4624 37.895 29.2895 38.3007 29.5863C39.2587 30.2727 40.4353 29.2026 39.5418 28.2406C39.4901 28.1928 39.2172 27.9543 38.774 27.7959C38.6468 26.6524 37.0043 26.7003 36.9468 27.8527C35.659 28.3854 35.2796 30.3171 36.401 31.1877C36.8631 31.55 37.5019 31.8032 38.1235 32.0229C38.2681 32.0739 38.4103 32.159 38.3695 32.4017C38.2596 33.056 37.3454 32.8465 36.999 32.6199C35.9616 31.9917 35.0063 33.4542 35.9969 34.152C36.3546 34.3859 36.647 34.5176 36.9503 34.5894C37.0866 35.7391 38.7426 35.6696 38.7771 34.507V34.4805C39.4972 34.1741 40.038 33.5185 40.1747 32.7052C40.355 31.6332 39.7758 30.6653 38.7336 30.297Z" fill="#0EADFF"/>
<path d="M45.1356 10.2516H31.5688V6.19313C31.5688 5.68764 31.159 5.27783 30.6535 5.27783H16.1715C15.666 5.27783 15.2562 5.68764 15.2562 6.19313V10.2516H1.68944C1.18395 10.2516 0.774139 10.6614 0.774139 11.1669V38.4224C0.774139 38.9278 1.18395 39.3377 1.68944 39.3377H15.2562V41.7886C15.2562 42.2941 15.666 42.7039 16.1715 42.7039H30.6536C31.1591 42.7039 31.5689 42.2941 31.5689 41.7886V39.3377H45.1356C45.6411 39.3377 46.0509 38.9278 46.0509 38.4224V11.1669C46.0509 10.6614 45.6411 10.2516 45.1356 10.2516ZM44.2203 15.2253H31.5688V12.0822H44.2203V15.2253ZM29.7382 7.10843V10.2516H17.0868V7.10843H29.7382ZM2.60474 12.0822H15.2562V15.2253H2.60474V12.0822ZM29.7382 40.8734H17.0868V34.0686C17.0448 32.8566 15.2978 32.8576 15.2562 34.0686V37.5072H2.60474V17.0559H15.2562V29.1902C15.2982 30.4022 17.0452 30.4012 17.0868 29.1902V12.0822H29.7383V40.8734H29.7382ZM31.5688 37.5072V17.0559H44.2203V37.5071H31.5688V37.5072Z" fill="#0EADFF"/>
<path d="M10.0218 30.297C9.61505 30.1532 8.97824 30.0778 8.85413 29.7736C8.72709 29.4624 9.18327 29.2895 9.58893 29.5863C10.5469 30.2727 11.7235 29.2026 10.8301 28.2406C10.7783 28.1928 10.5055 27.9543 10.0622 27.7959C9.93504 26.6524 8.2925 26.7003 8.23502 27.8527C6.94726 28.3854 6.56783 30.3171 7.68926 31.1877C8.1513 31.55 8.79018 31.8032 9.41173 32.0229C9.55635 32.0739 9.69852 32.159 9.65776 32.4017C9.54781 33.056 8.6336 32.8465 8.28726 32.6199C7.24979 31.9917 6.29459 33.4542 7.28518 34.152C7.64288 34.3859 7.93529 34.5176 8.23856 34.5894C8.37488 35.7391 10.0308 35.6696 10.0654 34.507V34.4805C10.7854 34.1741 11.3263 33.5185 11.463 32.7052C11.6432 31.6332 11.064 30.6653 10.0218 30.297Z" fill="#0EADFF"/>
<path d="M26.0448 14.7266H20.7801C19.5681 14.7685 19.5691 16.5155 20.7801 16.5572H26.0448C27.2568 16.5152 27.2559 14.7682 26.0448 14.7266Z" fill="#0EADFF"/>
<path d="M26.0448 18.4282H20.7801C19.5681 18.4702 19.5691 20.2172 20.7801 20.2588H26.0448C27.2568 20.2168 27.2559 18.4698 26.0448 18.4282Z" fill="#0EADFF"/>
<path d="M26.0448 22.1304H20.7801C19.5681 22.1724 19.5691 23.9194 20.7801 23.961H26.0448C27.2568 23.9189 27.2559 22.1719 26.0448 22.1304Z" fill="#0EADFF"/>
<path d="M26.0448 25.8325H20.7801C19.5681 25.8745 19.5691 27.6215 20.7801 27.6631H26.0448C27.2568 27.6211 27.2559 25.8741 26.0448 25.8325Z" fill="#0EADFF"/>
<path d="M11.5628 19.3032H6.29814C5.08617 19.3452 5.08714 21.0922 6.29814 21.1338H11.5628C12.7748 21.0918 12.7738 19.3448 11.5628 19.3032Z" fill="#0EADFF"/>
<path d="M11.5628 23.0049H6.29814C5.08617 23.0469 5.08714 24.7939 6.29814 24.8355H11.5628C12.7748 24.7935 12.7738 23.0465 11.5628 23.0049Z" fill="#0EADFF"/>
<path d="M40.4942 19.3032H35.2295C34.0175 19.3452 34.0185 21.0922 35.2295 21.1338H40.4942C41.7062 21.0918 41.7053 19.3448 40.4942 19.3032Z" fill="#0EADFF"/>
<path d="M40.4942 23.0049H35.2295C34.0175 23.0469 34.0185 24.7939 35.2295 24.8355H40.4942C41.7062 24.7935 41.7053 23.0465 40.4942 23.0049Z" fill="#0EADFF"/>
</g>
<defs>
<clipPath id="clip0">
<rect width="45" height="50" fill="white" transform="translate(0.774139 0.942871)"/>
</clipPath>
</defs>
</svg>
