<svg width="51" height="51" viewBox="0 0 51 51" fill="none" xmlns="http://www.w3.org/2000/svg">
<g clip-path="url(#clip0)">
<path d="M49.9677 31.194H41.0967V27.1617C41.0967 26.7168 40.7352 26.3553 40.2903 26.3553H39.4838V19.9037C39.4838 19.4587 39.1223 19.0972 38.6774 19.0972H23.3548V14.5924L24.7314 13.2158C24.883 13.065 24.9677 12.8594 24.9677 12.6456V5.23908C25.9041 4.90516 26.5806 4.01799 26.5806 2.96818C26.5806 1.63447 25.495 0.548828 24.1612 0.548828C22.8275 0.548828 21.7419 1.63447 21.7419 2.96818C21.7419 4.01799 22.4184 4.90516 23.3548 5.23908V12.3117L21.9781 13.6883C21.8265 13.8391 21.7419 14.0447 21.7419 14.2585V19.0972H20.129V9.27134C21.0654 8.93742 21.7419 8.05025 21.7419 7.00044C21.7419 5.66672 20.6562 4.58109 19.3225 4.58109C17.9888 4.58109 16.9032 5.66672 16.9032 7.00044C16.9032 8.05025 17.5797 8.93742 18.5161 9.27134V19.0972H16.9032V11.0327C16.9032 10.8189 16.8185 10.6133 16.6669 10.4625L14.7323 8.52789C15.0757 8.10931 15.2903 7.58283 15.2903 7.00044C15.2903 5.66672 14.2046 4.58109 12.8709 4.58109C11.5372 4.58109 10.4516 5.66672 10.4516 7.00044C10.4516 8.33416 11.5372 9.4198 12.8709 9.4198C13.0178 9.4198 13.1603 9.40129 13.3001 9.37609L15.2903 11.3666V19.0972H1.58059C1.13563 19.0972 0.774139 19.4587 0.774139 19.9037V45.7101C0.774139 46.1551 1.13563 46.5166 1.58059 46.5166H12.537L9.88137 49.1722C9.65062 49.4029 9.58132 49.7495 9.70654 50.0511C9.83136 50.3519 10.1259 50.5488 10.4516 50.5488H49.9677C50.4127 50.5488 50.7741 50.1873 50.7741 49.7424V32.0004C50.7741 31.5555 50.4127 31.194 49.9677 31.194ZM24.1612 2.16173C24.6054 2.16173 24.9677 2.524 24.9677 2.96818C24.9677 3.41236 24.6054 3.77463 24.1612 3.77463C23.7171 3.77463 23.3548 3.41236 23.3548 2.96818C23.3548 2.524 23.7171 2.16173 24.1612 2.16173ZM19.3225 6.19399C19.7667 6.19399 20.129 6.55626 20.129 7.00044C20.129 7.44462 19.7667 7.80689 19.3225 7.80689C18.8783 7.80689 18.5161 7.44462 18.5161 7.00044C18.5161 6.55626 18.8783 6.19399 19.3225 6.19399ZM12.0645 7.00044C12.0645 6.55626 12.4267 6.19399 12.8709 6.19399C13.3151 6.19399 13.6774 6.55626 13.6774 7.00044C13.6774 7.44462 13.3151 7.80689 12.8709 7.80689C12.4267 7.80689 12.0645 7.44462 12.0645 7.00044ZM49.1612 45.7101H47.5483V32.8069H49.1612V45.7101ZM45.9354 32.8069V45.7101H41.0967V32.8069H45.9354ZM34.6451 26.3553H33.8387C33.3937 26.3553 33.0322 26.7168 33.0322 27.1617V29.5811H27.387C26.9421 29.5811 26.5806 29.9426 26.5806 30.3875V41.6779H5.61285V23.9359H34.6451V26.3553ZM28.1935 31.194H33.0322V45.7101H28.1935V31.194ZM34.6451 30.3875V27.9682H39.4838V45.7101H34.6451V30.3875ZM2.38704 20.7101H37.8709V26.3553H36.258V23.1295C36.258 22.6845 35.8965 22.323 35.4516 22.323H4.8064C4.36143 22.323 3.99995 22.6845 3.99995 23.1295V42.4843C3.99995 42.9293 4.36143 43.2908 4.8064 43.2908H26.5806V44.9037H2.38704V20.7101ZM14.8177 46.5166H26.5806V48.9359H12.3984L14.8177 46.5166ZM28.1935 47.323H33.0322V48.9359H28.1935V47.323ZM34.6451 47.323H39.4838V48.9359H34.6451V47.323ZM41.0967 48.9359V47.323H49.1612V48.9359H41.0967Z" fill="#0EADFF"/>
<path d="M36.258 29.5811H37.8709V31.194H36.258V29.5811Z" fill="#0EADFF"/>
<path d="M36.258 32.8071H37.8709V34.42H36.258V32.8071Z" fill="#0EADFF"/>
<path d="M36.258 36.0327H37.8709V37.6456H36.258V36.0327Z" fill="#0EADFF"/>
<path d="M36.258 39.2583H37.8709V40.8712H36.258V39.2583Z" fill="#0EADFF"/>
<path d="M36.258 42.4844H37.8709V44.0973H36.258V42.4844Z" fill="#0EADFF"/>
<path d="M15.699 38.3472C15.8227 38.4173 15.9597 38.452 16.0967 38.452C16.2404 38.452 16.3838 38.4142 16.5122 38.3366L24.5767 33.4979C24.8192 33.3526 24.9677 33.0899 24.9677 32.8068C24.9677 32.5237 24.8192 32.261 24.5767 32.1157L16.5122 27.277C16.2629 27.127 15.9522 27.123 15.6998 27.2664C15.4466 27.4093 15.2903 27.6779 15.2903 27.9681V37.6455C15.2903 37.9357 15.4466 38.2043 15.699 38.3472ZM16.9032 29.3924L22.5936 32.8068L16.9032 36.2212V29.3924Z" fill="#0EADFF"/>
</g>
<defs>
<clipPath id="clip0">
<rect width="50" height="50" fill="white" transform="translate(0.774139 0.548828)"/>
</clipPath>
</defs>
</svg>
