<svg width="51" height="51" viewBox="0 0 51 51" fill="none" xmlns="http://www.w3.org/2000/svg">
<g clip-path="url(#clip0)">
<path d="M48.4304 35.0376V7.22168C48.4304 5.5793 47.0942 4.24316 45.4519 4.24316H38.3718V3.2666C38.3718 1.65117 37.0575 0.336914 35.4421 0.336914C33.8267 0.336914 32.5124 1.65117 32.5124 3.2666V4.24316H16.6921V3.2666C16.6921 1.65117 15.3779 0.336914 13.7624 0.336914C12.147 0.336914 10.8327 1.65117 10.8327 3.2666V4.24316H3.75266C2.11037 4.24316 0.774139 5.5793 0.774139 7.22168V43.4521C0.774139 45.0945 2.11037 46.4307 3.75266 46.4307H17.0633C17.6026 46.4307 18.0399 45.9935 18.0399 45.4541C18.0399 44.9147 17.6026 44.4775 17.0633 44.4775H3.75266C3.18723 44.4775 2.72726 44.0176 2.72726 43.4521V7.22168C2.72726 6.65625 3.18723 6.19629 3.75266 6.19629H10.8327V7.17285C10.8327 8.78828 12.147 10.1025 13.7624 10.1025C15.3779 10.1025 16.6921 8.78828 16.6921 7.17285V6.19629H32.5124V7.17285C32.5124 8.78828 33.8267 10.1025 35.4421 10.1025C37.0575 10.1025 38.3718 8.78828 38.3718 7.17285V6.19629H45.4519C46.0173 6.19629 46.4773 6.65625 46.4773 7.22168V12.0557H9.5632C9.02394 12.0557 8.58664 12.4929 8.58664 13.0322C8.58664 13.5716 9.02394 14.0088 9.5632 14.0088H46.4773V33.3874C45.6458 32.863 44.7249 32.4685 43.7429 32.232V17.7197C43.7429 17.1804 43.3056 16.7432 42.7663 16.7432H6.4382C5.89894 16.7432 5.46164 17.1804 5.46164 17.7197V40.7666C5.46164 41.306 5.89894 41.7432 6.4382 41.7432H32.434C32.4946 42.7017 32.7028 43.6206 33.0364 44.4775H24.8757C24.3364 44.4775 23.8991 44.9147 23.8991 45.4541C23.8991 45.9935 24.3364 46.4307 24.8757 46.4307H34.085C35.7478 48.7914 38.4939 50.3369 41.5945 50.3369C46.6562 50.3369 50.7741 46.2189 50.7741 41.1572C50.7741 38.8082 49.8868 36.6629 48.4304 35.0376ZM14.739 7.17285C14.739 7.71133 14.3009 8.14941 13.7624 8.14941C13.2239 8.14941 12.7859 7.71133 12.7859 7.17285V3.2666C12.7859 2.72813 13.2239 2.29004 13.7624 2.29004C14.3009 2.29004 14.739 2.72813 14.739 3.2666V7.17285ZM36.4187 7.17285C36.4187 7.71133 35.9806 8.14941 35.4421 8.14941C34.9036 8.14941 34.4655 7.71133 34.4655 7.17285V3.2666C34.4655 2.72813 34.9036 2.29004 35.4421 2.29004C35.9806 2.29004 36.4187 2.72813 36.4187 3.2666V7.17285ZM41.5945 31.9775C41.1404 31.9775 40.6942 32.0112 40.2575 32.0752H36.4773V26.4111H41.7898V31.98C41.7248 31.9786 41.6598 31.9775 41.5945 31.9775ZM32.5166 39.79H29.2116V34.0283H34.5241V35.309C33.4828 36.5657 32.7696 38.1036 32.5166 39.79ZM7.41476 26.4111H12.7273V32.0752H7.41476V26.4111ZM14.6804 26.4111H19.9929V32.0752H14.6804V26.4111ZM29.2116 26.4111H34.5241V32.0752H29.2116V26.4111ZM27.2585 32.0752H21.946V26.4111H27.2585V32.0752ZM29.2116 24.458V18.6963H34.5241V24.458H29.2116ZM27.2585 24.458H21.946V18.6963H27.2585V24.458ZM19.9929 24.458H14.6804V18.6963H19.9929V24.458ZM19.9929 34.0283V39.79H14.6804V34.0283H19.9929ZM21.946 34.0283H27.2585V39.79H21.946V34.0283ZM41.7898 24.458H36.4773V18.6963H41.7898V24.458ZM12.7273 18.6963V24.458H7.41476V18.6963H12.7273ZM7.41476 34.0283H12.7273V39.79H7.41476V34.0283ZM41.5945 48.3838C37.6097 48.3838 34.3679 45.142 34.3679 41.1572C34.3679 37.1725 37.6097 33.9307 41.5945 33.9307C45.5792 33.9307 48.821 37.1725 48.821 41.1572C48.821 45.142 45.5792 48.3838 41.5945 48.3838Z" fill="#0EADFF"/>
<path d="M44.4195 38.7904L41.3991 41.8108L40.0552 40.4669C39.6739 40.0855 39.0558 40.0855 38.674 40.4669C38.2927 40.8482 38.2927 41.4666 38.674 41.8479L40.7085 43.8824C40.8917 44.0655 41.14 44.1685 41.399 44.1685C41.658 44.1685 41.9063 44.0655 42.0895 43.8824L45.8005 40.1715C46.1818 39.7901 46.1818 39.1718 45.8005 38.7903C45.4191 38.4091 44.801 38.4091 44.4195 38.7904Z" fill="#0EADFF"/>
<path d="M20.9694 44.4775C20.7126 44.4775 20.4606 44.582 20.279 44.7637C20.0975 44.9453 19.9929 45.1973 19.9929 45.4541C19.9929 45.7109 20.0974 45.9629 20.279 46.1445C20.4606 46.3262 20.7126 46.4307 20.9694 46.4307C21.2263 46.4307 21.4782 46.3262 21.6599 46.1445C21.8414 45.9629 21.946 45.7109 21.946 45.4541C21.946 45.1973 21.8415 44.9453 21.6599 44.7637C21.4782 44.582 21.2263 44.4775 20.9694 44.4775Z" fill="#0EADFF"/>
<path d="M6.34728 13.7227C6.52902 13.541 6.63351 13.2891 6.63351 13.0322C6.63351 12.7754 6.52902 12.5234 6.34728 12.3418C6.16574 12.1602 5.91379 12.0557 5.65695 12.0557C5.39904 12.0557 5.14816 12.1602 4.96652 12.3418C4.78488 12.5234 4.68039 12.7754 4.68039 13.0322C4.68039 13.2891 4.78478 13.541 4.96652 13.7227C5.14826 13.9043 5.39904 14.0088 5.65695 14.0088C5.91379 14.0088 6.16574 13.9043 6.34728 13.7227Z" fill="#0EADFF"/>
</g>
<defs>
<clipPath id="clip0">
<rect width="50" height="50" fill="white" transform="translate(0.774139 0.336914)"/>
</clipPath>
</defs>
</svg>
