<svg width="20" height="20" viewBox="0 0 20 20" fill="none" xmlns="http://www.w3.org/2000/svg">
<path d="M4.09195 11.2914C3.88296 11.2914 3.68253 11.3737 3.53475 11.5202C3.38698 11.6668 3.30396 11.8655 3.30396 12.0727V15.1977C3.30396 15.4049 3.38698 15.6036 3.53475 15.7501C3.68253 15.8966 3.88296 15.9789 4.09195 15.9789C4.30093 15.9789 4.50136 15.8966 4.64914 15.7501C4.79692 15.6036 4.87994 15.4049 4.87994 15.1977V14.9383H5.40474C5.89252 14.9383 6.36032 14.7462 6.70523 14.4042C7.05014 14.0623 7.24391 13.5985 7.24391 13.1149C7.24391 12.6313 7.05014 12.1675 6.70523 11.8255C6.36032 11.4835 5.89252 11.2914 5.40474 11.2914H4.09195ZM5.40474 13.3758H4.87994V12.8539H5.40474C5.47454 12.8539 5.54149 12.8814 5.59084 12.9304C5.6402 12.9793 5.66793 13.0457 5.66793 13.1149C5.66793 13.1841 5.6402 13.2504 5.59084 13.2994C5.54149 13.3483 5.47454 13.3758 5.40474 13.3758Z" fill="#0EADFF"/>
<path d="M12.7598 12.0711C12.7602 11.8642 12.8434 11.6659 12.9912 11.5197C13.1389 11.3735 13.3391 11.2914 13.5478 11.2914H15.1222C15.3312 11.2914 15.5316 11.3737 15.6794 11.5202C15.8272 11.6668 15.9102 11.8655 15.9102 12.0727C15.9102 12.2799 15.8272 12.4786 15.6794 12.6251C15.5316 12.7716 15.3312 12.8539 15.1222 12.8539H14.3342V13.3774H15.1222C15.3312 13.3774 15.5316 13.4597 15.6794 13.6062C15.8272 13.7527 15.9102 13.9514 15.9102 14.1586C15.9102 14.3658 15.8272 14.5645 15.6794 14.711C15.5316 14.8576 15.3312 14.9399 15.1222 14.9399H14.3358V15.1961C14.336 15.2987 14.3158 15.4003 14.2764 15.4952C14.237 15.5901 14.1792 15.6763 14.1061 15.749C13.9586 15.8958 13.7584 15.9785 13.5494 15.9789C13.3404 15.9793 13.1398 15.8974 12.9917 15.7512C12.8437 15.605 12.7602 15.4064 12.7598 15.1992V14.1571V12.0711Z" fill="#0EADFF"/>
<path d="M8.81677 11.2914C8.60778 11.2914 8.40735 11.3737 8.25957 11.5202C8.1118 11.6668 8.02878 11.8655 8.02878 12.0727V15.1977C8.02878 15.4049 8.1118 15.6036 8.25957 15.7501C8.40735 15.8966 8.60778 15.9789 8.81677 15.9789H9.60791C10.2349 15.9789 10.8362 15.732 11.2795 15.2925C11.7228 14.8529 11.9719 14.2568 11.9719 13.6352C11.9719 13.0136 11.7228 12.4174 11.2795 11.9779C10.8362 11.5384 10.2349 11.2914 9.60791 11.2914H8.81677ZM9.60476 14.4164V12.8539H9.60791C9.8169 12.8539 10.0173 12.9362 10.1651 13.0827C10.3129 13.2293 10.3959 13.428 10.3959 13.6352C10.3959 13.8424 10.3129 14.0411 10.1651 14.1876C10.0173 14.3341 9.8169 14.4164 9.60791 14.4164H9.60476Z" fill="#0EADFF"/>
<path d="M1.72796 2.69612V8.293C1.26661 8.45471 0.867244 8.75439 0.584963 9.15068C0.302682 9.54697 0.151397 10.0203 0.151979 10.5055V16.7602C0.151979 17.3818 0.40104 17.9779 0.844371 18.4175C1.2877 18.857 1.88899 19.1039 2.51595 19.1039H16.6998C17.3268 19.1039 17.928 18.857 18.3714 18.4175C18.8147 17.9779 19.0638 17.3818 19.0638 16.7602V10.5039C19.064 10.019 18.9126 9.54602 18.6303 9.15004C18.3481 8.75406 17.9489 8.45462 17.4878 8.293V5.68362C17.4881 5.37515 17.4271 5.06964 17.3081 4.78462C17.1891 4.4996 17.0145 4.24067 16.7944 4.02268L13.7748 1.03831C13.3316 0.599218 12.7308 0.352504 12.1042 0.352371H4.09194C3.46497 0.352371 2.86368 0.599301 2.42035 1.03884C1.97702 1.47838 1.72796 2.07452 1.72796 2.69612ZM4.09194 1.91487H11.1839V4.2555C11.1839 4.8771 11.4329 5.47324 11.8762 5.91278C12.3196 6.35232 12.9209 6.59925 13.5478 6.59925H15.9118V8.16018H3.30394V2.69612C3.30394 2.48892 3.38696 2.29021 3.53474 2.14369C3.68252 1.99718 3.88295 1.91487 4.09194 1.91487ZM12.7598 2.23987L15.5872 5.03675H13.5478C13.3388 5.03675 13.1384 4.95444 12.9906 4.80792C12.8429 4.66141 12.7598 4.4627 12.7598 4.2555V2.23987ZM2.51595 9.72425H16.6998C16.9088 9.72425 17.1092 9.80656 17.257 9.95307C17.4048 10.0996 17.4878 10.2983 17.4878 10.5055V16.7602C17.4878 16.9674 17.4048 17.1661 17.257 17.3126C17.1092 17.4591 16.9088 17.5414 16.6998 17.5414H2.51595C2.30696 17.5414 2.10654 17.4591 1.95876 17.3126C1.81098 17.1661 1.72796 16.9674 1.72796 16.7602V10.5039C1.72796 10.2967 1.81098 10.098 1.95876 9.95151C2.10654 9.80499 2.30696 9.72268 2.51595 9.72268V9.72425Z" fill="#0EADFF"/>
</svg>
