<svg width="46" height="39" viewBox="0 0 46 39" fill="none" xmlns="http://www.w3.org/2000/svg">
<path d="M23.9818 29.175C23.575 29.0312 22.9382 28.9558 22.8141 28.6515C22.687 28.3403 23.1432 28.1674 23.5489 28.4642C23.5489 28.4642 24.2976 29.0092 24.876 28.3885C25.4515 27.7709 24.79 27.1186 24.79 27.1186C24.7383 27.0707 24.4654 26.8323 24.0222 26.6739C23.895 25.5304 22.2525 25.5782 22.195 26.7306C20.9072 27.2634 20.5278 29.1951 21.6492 30.0656C22.1113 30.4279 22.7501 30.6812 23.3717 30.9008C23.5163 30.9519 23.6585 31.0369 23.6177 31.2797C23.5078 31.9339 22.5936 31.7245 22.2472 31.4979C21.2098 30.8696 20.2545 32.3321 21.2451 33.0299C21.6028 33.2639 21.8953 33.3956 22.1985 33.4673C22.3348 34.6171 23.9908 34.5475 24.0253 33.385V33.3585C24.7454 33.052 25.2863 32.3964 25.4229 31.5832C25.6031 30.511 25.024 29.5433 23.9818 29.175Z" fill="#0EADFF"/>
<path d="M38.4639 25.7648C38.0572 25.621 37.4204 25.5456 37.2963 25.2414C37.1692 24.9302 37.6254 24.7572 38.0311 25.054C38.9891 25.7405 40.1657 24.6703 39.2722 23.7084C39.2205 23.6606 38.9476 23.4221 38.5043 23.2637C38.3772 22.1202 36.7346 22.168 36.6772 23.3205C35.3894 23.8532 35.01 25.7849 36.1314 26.6554C36.5934 27.0178 37.2323 27.271 37.8539 27.4907C37.9985 27.5417 38.1407 27.6267 38.0999 27.8695C37.9899 28.5237 37.0757 28.3143 36.7294 28.0877C35.6919 27.4594 34.7367 28.9219 35.7273 29.6198C36.085 29.8537 36.3774 29.9854 36.6807 30.0572C36.817 31.2069 38.473 31.1373 38.5075 29.9748V29.9483C39.2275 29.6419 39.7684 28.9863 39.9051 28.173C40.0854 27.101 39.5062 26.1331 38.4639 25.7648Z" fill="#0EADFF"/>
<path d="M44.8658 5.71933H31.2991V1.6609C31.2991 1.15541 30.8892 0.745605 30.3838 0.745605H15.9018C15.3963 0.745605 14.9865 1.15541 14.9865 1.6609V5.71933H1.41969C0.914204 5.71933 0.504395 6.12914 0.504395 6.63463V33.8901C0.504395 34.3956 0.914204 34.8054 1.41969 34.8054H14.9865V37.2564C14.9865 37.7618 15.3963 38.1717 15.9018 38.1717H30.3839C30.8894 38.1717 31.2992 37.7618 31.2992 37.2564V34.8054H44.8658C45.3713 34.8054 45.7811 34.3956 45.7811 33.8901V6.63463C45.7811 6.12914 45.3713 5.71933 44.8658 5.71933ZM43.9505 10.6931H31.2991V7.54993H43.9505V10.6931ZM29.4685 2.5762V5.71933H16.8171V2.5762H29.4685ZM2.33499 7.54993H14.9865V10.6931H2.33499V7.54993ZM29.4685 36.3412H16.8171V29.5364C16.7751 28.3244 15.0281 28.3254 14.9865 29.5364V32.975H2.33499V12.5237H14.9865V24.6579C15.0285 25.8699 16.7755 25.8689 16.8171 24.6579V7.54993H29.4686V36.3412H29.4685ZM31.2991 32.975V12.5237H43.9505V32.9748H31.2991V32.975Z" fill="#0EADFF"/>
<path d="M9.75203 25.7648C9.34527 25.621 8.70847 25.5456 8.58435 25.2414C8.45731 24.9302 8.9135 24.7572 9.31916 25.054C10.2772 25.7405 11.4538 24.6703 10.5603 23.7084C10.5086 23.6606 10.2357 23.4221 9.79243 23.2637C9.66526 22.1202 8.02273 22.168 7.96525 23.3205C6.67748 23.8532 6.29806 25.7849 7.41948 26.6554C7.88153 27.0178 8.52041 27.271 9.14195 27.4907C9.28657 27.5417 9.42875 27.6267 9.38799 27.8695C9.27803 28.5237 8.36383 28.3143 8.01748 28.0877C6.98002 27.4594 6.02481 28.9219 7.01541 29.6198C7.37311 29.8537 7.66552 29.9854 7.96879 30.0572C8.1051 31.2069 9.76106 31.1373 9.7956 29.9748V29.9483C10.5156 29.6419 11.0565 28.9863 11.1932 28.173C11.3735 27.101 10.7943 26.1331 9.75203 25.7648Z" fill="#0EADFF"/>
<path d="M25.7751 10.1943H20.5104C19.2984 10.2363 19.2994 11.9833 20.5104 12.0249H25.7751C26.9871 11.983 26.9862 10.236 25.7751 10.1943Z" fill="#0EADFF"/>
<path d="M25.7751 13.896H20.5104C19.2984 13.938 19.2994 15.685 20.5104 15.7266H25.7751C26.9871 15.6846 26.9862 13.9376 25.7751 13.896Z" fill="#0EADFF"/>
<path d="M25.7751 17.5981H20.5104C19.2984 17.6401 19.2994 19.3871 20.5104 19.4287H25.7751C26.9871 19.3866 26.9862 17.6396 25.7751 17.5981Z" fill="#0EADFF"/>
<path d="M25.7751 21.3003H20.5104C19.2984 21.3423 19.2994 23.0893 20.5104 23.1309H25.7751C26.9871 23.0889 26.9862 21.3419 25.7751 21.3003Z" fill="#0EADFF"/>
<path d="M11.2932 14.771H6.02849C4.81651 14.813 4.81749 16.56 6.02849 16.6016H11.2932C12.5051 16.5596 12.5042 14.8126 11.2932 14.771Z" fill="#0EADFF"/>
<path d="M11.2932 18.4727H6.02849C4.81651 18.5146 4.81749 20.2616 6.02849 20.3033H11.2932C12.5051 20.2613 12.5042 18.5143 11.2932 18.4727Z" fill="#0EADFF"/>
<path d="M40.2243 14.771H34.9596C33.7477 14.813 33.7486 16.56 34.9596 16.6016H40.2243C41.4363 16.5596 41.4354 14.8126 40.2243 14.771Z" fill="#0EADFF"/>
<path d="M40.2243 18.4727H34.9596C33.7477 18.5146 33.7486 20.2616 34.9596 20.3033H40.2243C41.4363 20.2613 41.4354 18.5143 40.2243 18.4727Z" fill="#0EADFF"/>
</svg>
