<svg width="51" height="51" viewBox="0 0 51 51" fill="none" xmlns="http://www.w3.org/2000/svg">
<g clip-path="url(#clip0_261:159)">
<path d="M49.6979 30.882H40.827V26.8497C40.827 26.4048 40.4655 26.0433 40.0205 26.0433H39.2141V19.5917C39.2141 19.1467 38.8526 18.7852 38.4076 18.7852H23.085V14.2804L24.4617 12.9038C24.6133 12.753 24.6979 12.5474 24.6979 12.3336V4.92707C25.6343 4.59315 26.3108 3.70598 26.3108 2.65617C26.3108 1.32245 25.2252 0.236816 23.8915 0.236816C22.5578 0.236816 21.4721 1.32245 21.4721 2.65617C21.4721 3.70598 22.1486 4.59315 23.085 4.92707V11.9997L21.7084 13.3763C21.5568 13.5271 21.4721 13.7327 21.4721 13.9465V18.7852H19.8592V8.95933C20.7956 8.62541 21.4721 7.73823 21.4721 6.68843C21.4721 5.35471 20.3865 4.26907 19.0528 4.26907C17.7191 4.26907 16.6334 5.35471 16.6334 6.68843C16.6334 7.73823 17.3099 8.62541 18.2463 8.95933V18.7852H16.6334V10.7207C16.6334 10.5069 16.5488 10.3013 16.3972 10.1505L14.4625 8.21588C14.8059 7.7973 15.0205 7.27082 15.0205 6.68843C15.0205 5.35471 13.9349 4.26907 12.6012 4.26907C11.2675 4.26907 10.1818 5.35471 10.1818 6.68843C10.1818 8.02215 11.2675 9.10778 12.6012 9.10778C12.748 9.10778 12.8906 9.08928 13.0304 9.06408L15.0205 11.0546V18.7852H1.31085C0.86588 18.7852 0.504395 19.1467 0.504395 19.5917V45.3981C0.504395 45.8431 0.86588 46.2046 1.31085 46.2046H12.2672L9.61163 48.8602C9.38088 49.0909 9.31157 49.4375 9.43679 49.7391C9.56162 50.0399 9.85616 50.2368 10.1818 50.2368H49.6979C50.1429 50.2368 50.5044 49.8753 50.5044 49.4304V31.6884C50.5044 31.2435 50.1429 30.882 49.6979 30.882ZM23.8915 1.84972C24.3357 1.84972 24.6979 2.21199 24.6979 2.65617C24.6979 3.10035 24.3357 3.46262 23.8915 3.46262C23.4473 3.46262 23.085 3.10035 23.085 2.65617C23.085 2.21199 23.4473 1.84972 23.8915 1.84972ZM19.0528 5.88198C19.497 5.88198 19.8592 6.24425 19.8592 6.68843C19.8592 7.13261 19.497 7.49488 19.0528 7.49488C18.6086 7.49488 18.2463 7.13261 18.2463 6.68843C18.2463 6.24425 18.6086 5.88198 19.0528 5.88198ZM11.7947 6.68843C11.7947 6.24425 12.157 5.88198 12.6012 5.88198C13.0453 5.88198 13.4076 6.24425 13.4076 6.68843C13.4076 7.13261 13.0453 7.49488 12.6012 7.49488C12.157 7.49488 11.7947 7.13261 11.7947 6.68843ZM48.8915 45.3981H47.2786V32.4949H48.8915V45.3981ZM45.6657 32.4949V45.3981H40.827V32.4949H45.6657ZM34.3754 26.0433H33.5689C33.1239 26.0433 32.7625 26.4048 32.7625 26.8497V29.2691H27.1173C26.6723 29.2691 26.3108 29.6306 26.3108 30.0755V41.3658H5.3431V23.6239H34.3754V26.0433ZM27.9237 30.882H32.7625V45.3981H27.9237V30.882ZM34.3754 30.0755V27.6562H39.2141V45.3981H34.3754V30.0755ZM2.1173 20.3981H37.6012V26.0433H35.9883V22.8175C35.9883 22.3725 35.6268 22.011 35.1818 22.011H4.53665C4.09169 22.011 3.7302 22.3725 3.7302 22.8175V42.1723C3.7302 42.6173 4.09169 42.9788 4.53665 42.9788H26.3108V44.5917H2.1173V20.3981ZM14.548 46.2046H26.3108V48.6239H12.1286L14.548 46.2046ZM27.9237 47.011H32.7625V48.6239H27.9237V47.011ZM34.3754 47.011H39.2141V48.6239H34.3754V47.011ZM40.827 48.6239V47.011H48.8915V48.6239H40.827Z" fill="#0EADFF"/>
<path d="M35.9883 29.269H37.6012V30.8819H35.9883V29.269Z" fill="#0EADFF"/>
<path d="M35.9883 32.4951H37.6012V34.108H35.9883V32.4951Z" fill="#0EADFF"/>
<path d="M35.9883 35.7207H37.6012V37.3336H35.9883V35.7207Z" fill="#0EADFF"/>
<path d="M35.9883 38.9463H37.6012V40.5592H35.9883V38.9463Z" fill="#0EADFF"/>
<path d="M35.9883 42.1724H37.6012V43.7853H35.9883V42.1724Z" fill="#0EADFF"/>
<path d="M15.4292 38.0352C15.5529 38.1053 15.6899 38.1399 15.827 38.1399C15.9707 38.1399 16.114 38.1021 16.2424 38.0246L24.3069 33.1859C24.5495 33.0406 24.6979 32.7779 24.6979 32.4948C24.6979 32.2117 24.5495 31.949 24.3069 31.8037L16.2424 26.965C15.9931 26.815 15.6824 26.811 15.43 26.9544C15.1768 27.0973 15.0205 27.3659 15.0205 27.6561V37.3335C15.0205 37.6237 15.1768 37.8923 15.4292 38.0352ZM16.6334 29.0804L22.3239 32.4948L16.6334 35.9092V29.0804Z" fill="#0EADFF"/>
</g>
<defs>
<clipPath id="clip0_261:159">
<rect width="50" height="50" fill="white" transform="translate(0.504395 0.236816)"/>
</clipPath>
</defs>
</svg>
