<svg width="51" height="51" viewBox="0 0 51 51" fill="none" xmlns="http://www.w3.org/2000/svg">
<g clip-path="url(#clip0_261:185)">
<path d="M48.1606 35.2852V7.46924C48.1606 5.82686 46.8244 4.49072 45.1821 4.49072H38.1021V3.51416C38.1021 1.89873 36.7878 0.584473 35.1724 0.584473C33.5569 0.584473 32.2427 1.89873 32.2427 3.51416V4.49072H16.4224V3.51416C16.4224 1.89873 15.1081 0.584473 13.4927 0.584473C11.8772 0.584473 10.563 1.89873 10.563 3.51416V4.49072H3.48291C1.84063 4.49072 0.504395 5.82686 0.504395 7.46924V43.6997C0.504395 45.3421 1.84063 46.6782 3.48291 46.6782H16.7936C17.3328 46.6782 17.7701 46.241 17.7701 45.7017C17.7701 45.1623 17.3328 44.7251 16.7936 44.7251H3.48291C2.91748 44.7251 2.45752 44.2651 2.45752 43.6997V7.46924C2.45752 6.90381 2.91748 6.44385 3.48291 6.44385H10.563V7.42041C10.563 9.03584 11.8772 10.3501 13.4927 10.3501C15.1081 10.3501 16.4224 9.03584 16.4224 7.42041V6.44385H32.2427V7.42041C32.2427 9.03584 33.5569 10.3501 35.1724 10.3501C36.7878 10.3501 38.1021 9.03584 38.1021 7.42041V6.44385H45.1821C45.7476 6.44385 46.2075 6.90381 46.2075 7.46924V12.3032H9.29346C8.7542 12.3032 8.31689 12.7404 8.31689 13.2798C8.31689 13.8191 8.7542 14.2563 9.29346 14.2563H46.2075V33.635C45.3761 33.1105 44.4552 32.716 43.4731 32.4796V17.9673C43.4731 17.4279 43.0358 16.9907 42.4966 16.9907H6.16846C5.6292 16.9907 5.19189 17.4279 5.19189 17.9673V41.0142C5.19189 41.5535 5.6292 41.9907 6.16846 41.9907H32.1643C32.2249 42.9492 32.433 43.8682 32.7667 44.7251H24.606C24.0667 44.7251 23.6294 45.1623 23.6294 45.7017C23.6294 46.241 24.0667 46.6782 24.606 46.6782H33.8152C35.478 49.039 38.2241 50.5845 41.3247 50.5845C46.3864 50.5845 50.5044 46.4665 50.5044 41.4048C50.5044 39.0558 49.6171 36.9104 48.1606 35.2852ZM14.4692 7.42041C14.4692 7.95889 14.0312 8.39697 13.4927 8.39697C12.9542 8.39697 12.5161 7.95889 12.5161 7.42041V3.51416C12.5161 2.97568 12.9542 2.5376 13.4927 2.5376C14.0312 2.5376 14.4692 2.97568 14.4692 3.51416V7.42041ZM36.1489 7.42041C36.1489 7.95889 35.7108 8.39697 35.1724 8.39697C34.6339 8.39697 34.1958 7.95889 34.1958 7.42041V3.51416C34.1958 2.97568 34.6339 2.5376 35.1724 2.5376C35.7108 2.5376 36.1489 2.97568 36.1489 3.51416V7.42041ZM41.3247 32.2251C40.8707 32.2251 40.4244 32.2588 39.9878 32.3228H36.2075V26.6587H41.52V32.2275C41.4551 32.2262 41.39 32.2251 41.3247 32.2251ZM32.2469 40.0376H28.9419V34.2759H34.2544V35.5565C33.2131 36.8133 32.4998 38.3512 32.2469 40.0376ZM7.14502 26.6587H12.4575V32.3228H7.14502V26.6587ZM14.4106 26.6587H19.7231V32.3228H14.4106V26.6587ZM28.9419 26.6587H34.2544V32.3228H28.9419V26.6587ZM26.9888 32.3228H21.6763V26.6587H26.9888V32.3228ZM28.9419 24.7056V18.9438H34.2544V24.7056H28.9419ZM26.9888 24.7056H21.6763V18.9438H26.9888V24.7056ZM19.7231 24.7056H14.4106V18.9438H19.7231V24.7056ZM19.7231 34.2759V40.0376H14.4106V34.2759H19.7231ZM21.6763 34.2759H26.9888V40.0376H21.6763V34.2759ZM41.52 24.7056H36.2075V18.9438H41.52V24.7056ZM12.4575 18.9438V24.7056H7.14502V18.9438H12.4575ZM7.14502 34.2759H12.4575V40.0376H7.14502V34.2759ZM41.3247 48.6313C37.3399 48.6313 34.0981 45.3895 34.0981 41.4048C34.0981 37.42 37.3399 34.1782 41.3247 34.1782C45.3095 34.1782 48.5513 37.42 48.5513 41.4048C48.5513 45.3895 45.3095 48.6313 41.3247 48.6313Z" fill="#0EADFF"/>
<path d="M44.1497 39.038L41.1293 42.0584L39.7853 40.7144C39.4041 40.3331 38.7859 40.3331 38.4042 40.7144C38.0228 41.0958 38.0228 41.7142 38.4042 42.0955L40.4387 44.13C40.6219 44.3131 40.8702 44.416 41.1292 44.416C41.3882 44.416 41.6365 44.3131 41.8197 44.13L45.5307 40.419C45.912 40.0377 45.912 39.4193 45.5307 39.0379C45.1493 38.6566 44.5311 38.6566 44.1497 39.038Z" fill="#0EADFF"/>
<path d="M20.6997 44.7251C20.4429 44.7251 20.1909 44.8296 20.0093 45.0112C19.8277 45.1929 19.7231 45.4448 19.7231 45.7017C19.7231 45.9585 19.8276 46.2104 20.0093 46.3921C20.1909 46.5737 20.4429 46.6782 20.6997 46.6782C20.9565 46.6782 21.2085 46.5737 21.3901 46.3921C21.5717 46.2104 21.6763 45.9585 21.6763 45.7017C21.6763 45.4448 21.5718 45.1929 21.3901 45.0112C21.2085 44.8296 20.9565 44.7251 20.6997 44.7251Z" fill="#0EADFF"/>
<path d="M6.07754 13.9702C6.25928 13.7886 6.36377 13.5366 6.36377 13.2798C6.36377 13.0229 6.25928 12.771 6.07754 12.5894C5.896 12.4077 5.64404 12.3032 5.38721 12.3032C5.1293 12.3032 4.87842 12.4077 4.69678 12.5894C4.51514 12.771 4.41064 13.0229 4.41064 13.2798C4.41064 13.5366 4.51504 13.7886 4.69678 13.9702C4.87852 14.1519 5.1293 14.2563 5.38721 14.2563C5.64404 14.2563 5.896 14.1519 6.07754 13.9702Z" fill="#0EADFF"/>
</g>
<defs>
<clipPath id="clip0_261:185">
<rect width="50" height="50" fill="white" transform="translate(0.504395 0.584473)"/>
</clipPath>
</defs>
</svg>
