<svg width="47" height="48" viewBox="0 0 47 48" fill="none" xmlns="http://www.w3.org/2000/svg">
<path d="M43.5312 17.7285H39.625V4.44727C39.6238 3.41164 39.2118 2.4188 38.4795 1.6865C37.7472 0.954205 36.7544 0.542256 35.7188 0.541016H4.46875C3.43313 0.542256 2.44028 0.954205 1.70798 1.6865C0.975689 2.4188 0.563741 3.41164 0.5625 4.44727V21.6348C0.563741 22.6704 0.975689 23.6632 1.70798 24.3955C2.44028 25.1278 3.43313 25.5398 4.46875 25.541H5.25V29.4473C5.25003 29.6018 5.29587 29.7528 5.38172 29.8812C5.46756 30.0097 5.58957 30.1098 5.7323 30.1689C5.87504 30.228 6.03209 30.2435 6.18362 30.2133C6.33514 30.1832 6.47433 30.1088 6.58359 29.9996L11.0422 25.541H13.0625V38.8223C13.0637 39.8579 13.4757 40.8507 14.208 41.583C14.9403 42.3153 15.9331 42.7273 16.9688 42.7285H35.3953L39.8539 47.1871C39.9632 47.2963 40.1024 47.3707 40.2539 47.4008C40.4054 47.431 40.5625 47.4155 40.7052 47.3564C40.8479 47.2973 40.9699 47.1972 41.0558 47.0687C41.1416 46.9403 41.1875 46.7893 41.1875 46.6348V42.7285H43.5312C44.5669 42.7273 45.5597 42.3153 46.292 41.583C47.0243 40.8507 47.4363 39.8579 47.4375 38.8223V21.6348C47.4363 20.5991 47.0243 19.6063 46.292 18.874C45.5597 18.1417 44.5669 17.7298 43.5312 17.7285ZM10.7188 23.9785C10.5116 23.9786 10.3129 24.0609 10.1664 24.2074L6.8125 27.5613V24.7598C6.8125 24.5526 6.73019 24.3539 6.58368 24.2073C6.43716 24.0608 6.23845 23.9785 6.03125 23.9785H4.46875C3.84715 23.9785 3.25101 23.7316 2.81147 23.292C2.37193 22.8525 2.125 22.2564 2.125 21.6348V4.44727C2.125 3.82566 2.37193 3.22952 2.81147 2.78998C3.25101 2.35045 3.84715 2.10352 4.46875 2.10352H35.7188C36.3404 2.10352 36.9365 2.35045 37.376 2.78998C37.8156 3.22952 38.0625 3.82566 38.0625 4.44727V21.6348C38.0625 22.2564 37.8156 22.8525 37.376 23.292C36.9365 23.7316 36.3404 23.9785 35.7188 23.9785H10.7188ZM45.875 38.8223C45.875 39.4439 45.6281 40.04 45.1885 40.4795C44.749 40.9191 44.1529 41.166 43.5312 41.166H40.4062C40.1991 41.166 40.0003 41.2483 39.8538 41.3948C39.7073 41.5414 39.625 41.7401 39.625 41.9473V44.7488L36.2711 41.3949C36.1246 41.2484 35.9259 41.1661 35.7188 41.166H16.9688C16.3471 41.166 15.751 40.9191 15.3115 40.4795C14.8719 40.04 14.625 39.4439 14.625 38.8223V25.541H35.7188C36.7544 25.5398 37.7472 25.1278 38.4795 24.3955C39.2118 23.6632 39.6238 22.6704 39.625 21.6348V19.291H43.5312C44.1529 19.291 44.749 19.5379 45.1885 19.9775C45.6281 20.417 45.875 21.0132 45.875 21.6348V38.8223Z" fill="#0EADFF"/>
<path d="M30.25 27.8848C29.7865 27.8848 29.3333 28.0222 28.9479 28.2798C28.5625 28.5373 28.2621 28.9033 28.0847 29.3316C27.9073 29.7599 27.8609 30.2311 27.9513 30.6858C28.0417 31.1404 28.2649 31.558 28.5927 31.8858C28.9205 32.2136 29.3381 32.4368 29.7928 32.5272C30.2474 32.6177 30.7187 32.5713 31.1469 32.3939C31.5752 32.2165 31.9412 31.9161 32.1988 31.5306C32.4563 31.1452 32.5938 30.6921 32.5938 30.2285C32.5938 29.6069 32.3468 29.0108 31.9073 28.5712C31.4677 28.1317 30.8716 27.8848 30.25 27.8848ZM30.25 31.0098C30.0955 31.0098 29.9444 30.964 29.816 30.8781C29.6875 30.7923 29.5874 30.6702 29.5282 30.5275C29.4691 30.3847 29.4536 30.2277 29.4838 30.0761C29.5139 29.9246 29.5883 29.7854 29.6976 29.6761C29.8068 29.5668 29.946 29.4924 30.0976 29.4623C30.2491 29.4321 30.4062 29.4476 30.549 29.5067C30.6917 29.5659 30.8137 29.666 30.8996 29.7945C30.9854 29.923 31.0313 30.074 31.0313 30.2285C31.0313 30.4357 30.9489 30.6344 30.8024 30.7809C30.6559 30.9275 30.4572 31.0098 30.25 31.0098Z" fill="#0EADFF"/>
<path d="M38.0625 27.8848C37.599 27.8848 37.1458 28.0222 36.7604 28.2798C36.375 28.5373 36.0746 28.9033 35.8972 29.3316C35.7198 29.7599 35.6734 30.2311 35.7638 30.6858C35.8542 31.1404 36.0774 31.558 36.4052 31.8858C36.733 32.2136 37.1506 32.4368 37.6053 32.5272C38.0599 32.6177 38.5312 32.5713 38.9594 32.3939C39.3877 32.2165 39.7537 31.9161 40.0113 31.5306C40.2688 31.1452 40.4063 30.6921 40.4063 30.2285C40.4063 29.6069 40.1593 29.0108 39.7198 28.5712C39.2802 28.1317 38.6841 27.8848 38.0625 27.8848ZM38.0625 31.0098C37.908 31.0098 37.7569 30.964 37.6285 30.8781C37.5 30.7923 37.3999 30.6702 37.3407 30.5275C37.2816 30.3847 37.2661 30.2277 37.2963 30.0761C37.3264 29.9246 37.4008 29.7854 37.5101 29.6761C37.6193 29.5668 37.7585 29.4924 37.9101 29.4623C38.0616 29.4321 38.2187 29.4476 38.3615 29.5067C38.5042 29.5659 38.6262 29.666 38.7121 29.7945C38.7979 29.923 38.8438 30.074 38.8438 30.2285C38.8438 30.4357 38.7614 30.6344 38.6149 30.7809C38.4684 30.9275 38.2697 31.0098 38.0625 31.0098Z" fill="#0EADFF"/>
<path d="M22.4375 27.8848C21.974 27.8848 21.5208 28.0222 21.1354 28.2798C20.75 28.5373 20.4496 28.9033 20.2722 29.3316C20.0948 29.7599 20.0484 30.2311 20.1388 30.6858C20.2292 31.1404 20.4524 31.558 20.7802 31.8858C21.108 32.2136 21.5256 32.4368 21.9803 32.5272C22.4349 32.6177 22.9062 32.5713 23.3344 32.3939C23.7627 32.2165 24.1287 31.9161 24.3863 31.5306C24.6438 31.1452 24.7813 30.6921 24.7813 30.2285C24.7813 29.6069 24.5343 29.0108 24.0948 28.5712C23.6553 28.1317 23.0591 27.8848 22.4375 27.8848ZM22.4375 31.0098C22.283 31.0098 22.1319 30.964 22.0035 30.8781C21.875 30.7923 21.7749 30.6702 21.7157 30.5275C21.6566 30.3847 21.6411 30.2277 21.6713 30.0761C21.7014 29.9246 21.7758 29.7854 21.8851 29.6761C21.9943 29.5668 22.1335 29.4924 22.2851 29.4623C22.4366 29.4321 22.5937 29.4476 22.7365 29.5067C22.8792 29.5659 23.0012 29.666 23.0871 29.7945C23.1729 29.923 23.2188 30.074 23.2188 30.2285C23.2188 30.4357 23.1364 30.6344 22.9899 30.7809C22.8434 30.9275 22.6447 31.0098 22.4375 31.0098Z" fill="#0EADFF"/>
<path d="M10.7188 6.79102H34.1562C34.3635 6.79102 34.5622 6.70871 34.7087 6.56219C34.8552 6.41568 34.9375 6.21697 34.9375 6.00977C34.9375 5.80257 34.8552 5.60385 34.7087 5.45734C34.5622 5.31083 34.3635 5.22852 34.1562 5.22852H10.7188C10.5115 5.22852 10.3128 5.31083 10.1663 5.45734C10.0198 5.60385 9.9375 5.80257 9.9375 6.00977C9.9375 6.21697 10.0198 6.41568 10.1663 6.56219C10.3128 6.70871 10.5115 6.79102 10.7188 6.79102Z" fill="#0EADFF"/>
<path d="M6.03125 11.4785H34.1562C34.3635 11.4785 34.5622 11.3962 34.7087 11.2497C34.8552 11.1032 34.9375 10.9045 34.9375 10.6973C34.9375 10.4901 34.8552 10.2914 34.7087 10.1448C34.5622 9.99833 34.3635 9.91602 34.1562 9.91602H6.03125C5.82405 9.91602 5.62534 9.99833 5.47882 10.1448C5.33231 10.2914 5.25 10.4901 5.25 10.6973C5.25 10.9045 5.33231 11.1032 5.47882 11.2497C5.62534 11.3962 5.82405 11.4785 6.03125 11.4785Z" fill="#0EADFF"/>
<path d="M6.03125 16.166H34.1562C34.3635 16.166 34.5622 16.0837 34.7087 15.9372C34.8552 15.7907 34.9375 15.592 34.9375 15.3848C34.9375 15.1776 34.8552 14.9789 34.7087 14.8323C34.5622 14.6858 34.3635 14.6035 34.1562 14.6035H6.03125C5.82405 14.6035 5.62534 14.6858 5.47882 14.8323C5.33231 14.9789 5.25 15.1776 5.25 15.3848C5.25 15.592 5.33231 15.7907 5.47882 15.9372C5.62534 16.0837 5.82405 16.166 6.03125 16.166Z" fill="#0EADFF"/>
<path d="M34.9375 20.0723C34.9375 19.8651 34.8552 19.6664 34.7087 19.5198C34.5622 19.3733 34.3635 19.291 34.1562 19.291H6.03125C5.82405 19.291 5.62534 19.3733 5.47882 19.5198C5.33231 19.6664 5.25 19.8651 5.25 20.0723C5.25 20.2795 5.33231 20.4782 5.47882 20.6247C5.62534 20.7712 5.82405 20.8535 6.03125 20.8535H34.1562C34.3635 20.8535 34.5622 20.7712 34.7087 20.6247C34.8552 20.4782 34.9375 20.2795 34.9375 20.0723Z" fill="#0EADFF"/>
<path d="M6.03125 6.79102H7.59375C7.80095 6.79102 7.99966 6.70871 8.14618 6.56219C8.29269 6.41568 8.375 6.21697 8.375 6.00977C8.375 5.80257 8.29269 5.60385 8.14618 5.45734C7.99966 5.31083 7.80095 5.22852 7.59375 5.22852H6.03125C5.82405 5.22852 5.62534 5.31083 5.47882 5.45734C5.33231 5.60385 5.25 5.80257 5.25 6.00977C5.25 6.21697 5.33231 6.41568 5.47882 6.56219C5.62534 6.70871 5.82405 6.79102 6.03125 6.79102Z" fill="#0EADFF"/>
</svg>
