<svg width="44" height="44" viewBox="0 0 44 44" fill="none" xmlns="http://www.w3.org/2000/svg">
<g clip-path="url(#clip0)">
<path d="M39.7059 0.962891H14.285C11.9172 0.962891 9.99087 2.84544 9.99087 5.15938V19.9879C4.30465 21.0737 0 25.9789 0 31.849C0 38.5132 5.54778 43.9349 12.367 43.9349H39.7059C42.0737 43.9349 44 42.0524 44 39.7384V5.15938C44 2.84535 42.0737 0.962891 39.7059 0.962891ZM1.71763 31.849C1.71763 26.1104 6.49488 21.4418 12.367 21.4418C18.239 21.4418 23.0163 26.1104 23.0163 31.849C23.0163 37.5877 18.239 42.2563 12.367 42.2563C6.49488 42.2563 1.71763 37.5877 1.71763 31.849ZM15.8308 19.5953V17.581C15.8308 17.1182 16.2161 16.7417 16.6896 16.7417H18.7508C19.2243 16.7417 19.6096 17.1182 19.6096 17.581V19.5953C19.6096 20.0581 19.2243 20.4346 18.7508 20.4346H16.6896C16.2161 20.4346 15.8308 20.0581 15.8308 19.5953ZM42.2824 39.7384C42.2824 41.1268 41.1266 42.2563 39.7059 42.2563H18.6476C20.6661 41.0885 22.3177 39.3765 23.3884 37.3279V37.7241C23.3884 39.1125 24.5442 40.242 25.9649 40.242H28.026C29.4467 40.242 30.6025 39.1125 30.6025 37.7241V35.7098C30.6025 34.3215 29.4467 33.1919 28.026 33.1919H25.9649C25.4672 33.1919 25.0023 33.3309 24.6078 33.5708C24.6903 33.0082 24.7339 32.4335 24.7339 31.849C24.7339 31.5116 24.719 31.1775 24.6911 30.847C25.067 31.0569 25.5017 31.1776 25.9649 31.1776H28.026C29.4467 31.1776 30.6025 30.0481 30.6025 28.6597V26.6454C30.6025 25.257 29.4467 24.1275 28.026 24.1275H25.9649C24.6306 24.1275 23.5301 25.1239 23.4012 26.3953C22.4894 24.6407 21.1526 23.131 19.5234 21.9974C20.5677 21.6758 21.3272 20.7207 21.3272 19.5953V17.581C21.3272 16.1926 20.1714 15.0631 18.7508 15.0631H16.6896C15.269 15.0631 14.1132 16.1926 14.1132 17.581V19.5953C14.1132 19.6939 14.1196 19.7909 14.131 19.8866C13.5546 19.8058 12.9658 19.7632 12.367 19.7632C12.1461 19.7632 11.9266 19.7691 11.7085 19.7804V5.15938C11.7085 3.77101 12.8643 2.64149 14.285 2.64149H39.7059C41.1266 2.64149 42.2824 3.77101 42.2824 5.15938V39.7384ZM25.106 37.7241V35.7098C25.106 35.247 25.4913 34.8705 25.9649 34.8705H28.026C28.4996 34.8705 28.8848 35.247 28.8848 35.7098V37.7241C28.8848 38.1869 28.4996 38.5634 28.026 38.5634H25.9649C25.4913 38.5634 25.106 38.1869 25.106 37.7241ZM25.106 28.6597V26.6454C25.106 26.1826 25.4913 25.8061 25.9649 25.8061H28.026C28.4996 25.8061 28.8848 26.1826 28.8848 26.6454V28.6597C28.8848 29.1225 28.4996 29.499 28.026 29.499H25.9649C25.4913 29.499 25.106 29.1225 25.106 28.6597Z" fill="#0EADFF"/>
<path d="M39.0188 4.65527H30.8601C30.3858 4.65527 30.0013 5.03103 30.0013 5.49457C30.0013 5.95812 30.3858 6.33387 30.8601 6.33387H38.16V11.3697H15.8308V6.33387H23.1307C23.605 6.33387 23.9895 5.95812 23.9895 5.49457C23.9895 5.03103 23.605 4.65527 23.1307 4.65527H14.972C14.4977 4.65527 14.1132 5.03103 14.1132 5.49457V12.209C14.1132 12.6725 14.4977 13.0483 14.972 13.0483H39.0188C39.4931 13.0483 39.8776 12.6725 39.8776 12.209V5.49457C39.8776 5.03103 39.4931 4.65527 39.0188 4.65527Z" fill="#0EADFF"/>
<path d="M28.026 15.0625H25.9649C24.5442 15.0625 23.3884 16.192 23.3884 17.5804V19.5947C23.3884 20.9831 24.5442 22.1126 25.9649 22.1126H28.026C29.4467 22.1126 30.6025 20.9831 30.6025 19.5947V17.5804C30.6025 16.192 29.4467 15.0625 28.026 15.0625ZM28.8849 19.5947C28.8849 20.0575 28.4996 20.434 28.026 20.434H25.9649C25.4913 20.434 25.1061 20.0575 25.1061 19.5947V17.5804C25.1061 17.1176 25.4913 16.7411 25.9649 16.7411H28.026C28.4996 16.7411 28.8849 17.1176 28.8849 17.5804V19.5947Z" fill="#0EADFF"/>
<path d="M37.3012 15.0625H35.2401C33.8194 15.0625 32.6636 16.192 32.6636 17.5804V19.5947C32.6636 20.9831 33.8194 22.1126 35.2401 22.1126H37.3012C38.7219 22.1126 39.8777 20.9831 39.8777 19.5947V17.5804C39.8777 16.192 38.7219 15.0625 37.3012 15.0625ZM38.1601 19.5947C38.1601 20.0575 37.7748 20.434 37.3012 20.434H35.2401C34.7665 20.434 34.3813 20.0575 34.3813 19.5947V17.5804C34.3813 17.1176 34.7665 16.7411 35.2401 16.7411H37.3012C37.7748 16.7411 38.1601 17.1176 38.1601 17.5804V19.5947Z" fill="#0EADFF"/>
<path d="M37.3012 24.127H35.2401C33.8194 24.127 32.6636 25.2565 32.6636 26.6448V37.7236C32.6636 39.112 33.8194 40.2415 35.2401 40.2415H37.3012C38.7219 40.2415 39.8777 39.112 39.8777 37.7236V26.6448C39.8777 25.2565 38.7219 24.127 37.3012 24.127ZM38.1601 37.7236C38.1601 38.1864 37.7748 38.5629 37.3012 38.5629H35.2401C34.7665 38.5629 34.3813 38.1864 34.3813 37.7236V26.6448C34.3813 26.1821 34.7665 25.8056 35.2401 25.8056H37.3012C37.7748 25.8056 38.1601 26.1821 38.1601 26.6448V37.7236Z" fill="#0EADFF"/>
<path d="M26.9954 6.33387C27.2213 6.33387 27.4429 6.24406 27.6025 6.08795C27.7622 5.93185 27.8542 5.71531 27.8542 5.49457C27.8542 5.27384 27.7623 5.0573 27.6025 4.90119C27.4429 4.74508 27.2213 4.65527 26.9954 4.65527C26.7695 4.65527 26.548 4.74508 26.3882 4.90119C26.2285 5.0573 26.1366 5.27384 26.1366 5.49457C26.1366 5.71531 26.2284 5.93185 26.3882 6.08795C26.5481 6.24406 26.7695 6.33387 26.9954 6.33387Z" fill="#0EADFF"/>
<path d="M15.1671 26.3247C14.7406 26.1223 14.2266 26.296 14.0195 26.713L9.29395 36.2227C9.08671 36.6397 9.26466 37.1419 9.69132 37.3443C9.81216 37.4017 9.93995 37.4289 10.0658 37.4289C10.3844 37.4289 10.6905 37.2549 10.839 36.956L15.5645 27.4463C15.7718 27.0294 15.5939 26.5272 15.1671 26.3247Z" fill="#0EADFF"/>
<path d="M10.1962 25.8534C9.12461 24.8061 7.38078 24.806 6.30898 25.8534C5.23726 26.9007 5.23726 28.6049 6.30898 29.6523C6.84488 30.1759 7.54876 30.4377 8.25256 30.4377C8.95645 30.4377 9.66042 30.1758 10.1962 29.6523C11.2679 28.6049 11.2679 26.9007 10.1962 25.8534ZM8.98161 28.4653C8.5796 28.8581 7.92553 28.8583 7.52351 28.4653C7.12142 28.0725 7.12142 27.4333 7.52351 27.0404C7.72448 26.8439 7.98848 26.7457 8.25256 26.7457C8.51656 26.7457 8.78056 26.8439 8.98153 27.0404C9.38371 27.4333 9.38371 28.0725 8.98161 28.4653Z" fill="#0EADFF"/>
<path d="M14.6905 34.0447C13.6188 35.0921 13.6188 36.7963 14.6905 37.8436C15.2263 38.3673 15.9303 38.6291 16.6341 38.6291C17.338 38.6291 18.042 38.3673 18.5778 37.8436C19.6495 36.7963 19.6495 35.0921 18.5778 34.0447C17.5059 32.9974 15.7621 32.9975 14.6905 34.0447ZM17.3631 36.6566C16.9611 37.0496 16.3069 37.0495 15.905 36.6566C15.5029 36.2637 15.5029 35.6245 15.905 35.2316C16.106 35.0352 16.37 34.937 16.6341 34.937C16.8981 34.937 17.1621 35.0352 17.3631 35.2316C17.7652 35.6245 17.7652 36.2637 17.3631 36.6566Z" fill="#0EADFF"/>
</g>
<defs>
<clipPath id="clip0">
<rect width="44" height="43" fill="white" transform="translate(0 0.948242)"/>
</clipPath>
</defs>
</svg>
