<svg width="45" height="51" viewBox="0 0 45 51" fill="none" xmlns="http://www.w3.org/2000/svg">
<g clip-path="url(#clip0)">
<path d="M23.4773 33.5314C23.0706 33.3876 22.4338 33.3122 22.3096 33.008C22.1826 32.6968 22.6388 32.5238 23.0444 32.8206C23.0444 32.8206 23.7932 33.3657 24.3715 32.745C24.947 32.1273 24.2856 31.475 24.2856 31.475C24.2338 31.4272 23.961 31.1887 23.5177 31.0303C23.3905 29.8868 21.748 29.9346 21.6905 31.0871C20.4028 31.6199 20.0233 33.5515 21.1448 34.422C21.6068 34.7844 22.2457 35.0376 22.8672 35.2573C23.0119 35.3083 23.154 35.3934 23.1133 35.6361C23.0033 36.2904 22.0891 36.0809 21.7428 35.8543C20.7053 35.226 19.7501 36.6886 20.7407 37.3864C21.0984 37.6203 21.3908 37.752 21.6941 37.8238C21.8304 38.9735 23.4863 38.904 23.5209 37.7414V37.7149C24.2409 37.4085 24.7818 36.7529 24.9185 35.9396C25.0986 34.8675 24.5195 33.8997 23.4773 33.5314Z" fill="#0EADFF"/>
<path d="M37.9594 30.1212C37.5527 29.9775 36.9159 29.902 36.7917 29.5978C36.6647 29.2866 37.1209 29.1137 37.5265 29.4105C38.4846 30.0969 39.6611 29.0268 38.7677 28.0649C38.7159 28.017 38.4431 27.7786 37.9998 27.6202C37.8727 26.4766 36.2301 26.5245 36.1726 27.6769C34.8849 28.2096 34.5055 30.1414 35.6269 31.0119C36.0889 31.3742 36.7278 31.6274 37.3493 31.8471C37.494 31.8981 37.6361 31.9832 37.5954 32.2259C37.4854 32.8802 36.5712 32.6708 36.2249 32.4441C35.1874 31.8159 34.2322 33.2784 35.2228 33.9762C35.5805 34.2102 35.8729 34.3418 36.1762 34.4136C36.3125 35.5633 37.9685 35.4938 38.003 34.3312V34.3047C38.723 33.9983 39.2639 33.3427 39.4006 32.5294C39.5808 31.4574 39.0016 30.4895 37.9594 30.1212Z" fill="#0EADFF"/>
<path d="M44.3615 10.0758H30.7947V6.01735C30.7947 5.51186 30.3848 5.10205 29.8794 5.10205H15.3974C14.8919 5.10205 14.4821 5.51186 14.4821 6.01735V10.0758H0.915298C0.409809 10.0758 0 10.4856 0 10.9911V38.2466C0 38.7521 0.409809 39.1619 0.915298 39.1619H14.4821V41.6128C14.4821 42.1183 14.8919 42.5281 15.3974 42.5281H29.8795C30.385 42.5281 30.7948 42.1183 30.7948 41.6128V39.1619H44.3615C44.8669 39.1619 45.2767 38.7521 45.2767 38.2466V10.9911C45.2767 10.4856 44.8669 10.0758 44.3615 10.0758ZM43.4462 15.0495H30.7947V11.9064H43.4462V15.0495ZM28.9641 6.93265V10.0758H16.3127V6.93265H28.9641ZM1.8306 11.9064H14.4821V15.0495H1.8306V11.9064ZM28.9641 40.6976H16.3127V33.8928C16.2707 32.6808 14.5237 32.6818 14.4821 33.8928V37.3314H1.8306V16.8801H14.4821V29.0144C14.5241 30.2264 16.2711 30.2254 16.3127 29.0144V11.9064H28.9642V40.6976H28.9641ZM30.7947 37.3314V16.8801H43.4462V37.3313H30.7947V37.3314Z" fill="#0EADFF"/>
<path d="M9.24764 30.1212C8.84088 29.9775 8.20407 29.902 8.07996 29.5978C7.95292 29.2866 8.4091 29.1137 8.81476 29.4105C9.77278 30.0969 10.9494 29.0268 10.0559 28.0649C10.0042 28.017 9.73128 27.7786 9.28803 27.6202C9.16087 26.4766 7.51833 26.5245 7.46085 27.6769C6.17309 28.2096 5.79366 30.1414 6.91509 31.0119C7.37713 31.3742 8.01601 31.6274 8.63756 31.8471C8.78218 31.8981 8.92436 31.9832 8.88359 32.2259C8.77364 32.8802 7.85943 32.6708 7.51309 32.4441C6.47562 31.8159 5.52042 33.2784 6.51101 33.9762C6.86871 34.2102 7.16112 34.3418 7.46439 34.4136C7.60071 35.5633 9.25667 35.4938 9.29121 34.3312V34.3047C10.0112 33.9983 10.5521 33.3427 10.6888 32.5294C10.8691 31.4574 10.2899 30.4895 9.24764 30.1212Z" fill="#0EADFF"/>
<path d="M25.2706 14.5508H20.006C18.794 14.5928 18.795 16.3398 20.006 16.3814H25.2706C26.4826 16.3394 26.4818 14.5924 25.2706 14.5508Z" fill="#0EADFF"/>
<path d="M25.2706 18.2524H20.006C18.794 18.2944 18.795 20.0414 20.006 20.083H25.2706C26.4826 20.0411 26.4818 18.2941 25.2706 18.2524Z" fill="#0EADFF"/>
<path d="M25.2706 21.9546H20.006C18.794 21.9966 18.795 23.7436 20.006 23.7852H25.2706C26.4826 23.7431 26.4818 21.9961 25.2706 21.9546Z" fill="#0EADFF"/>
<path d="M25.2706 25.6567H20.006C18.794 25.6987 18.795 27.4457 20.006 27.4873H25.2706C26.4826 27.4454 26.4818 25.6984 25.2706 25.6567Z" fill="#0EADFF"/>
<path d="M10.7887 19.1274H5.52403C4.31206 19.1694 4.31303 20.9164 5.52403 20.958H10.7887C12.0007 20.9161 11.9997 19.1691 10.7887 19.1274Z" fill="#0EADFF"/>
<path d="M10.7887 22.8291H5.52403C4.31206 22.8711 4.31303 24.6181 5.52403 24.6597H10.7887C12.0007 24.6177 11.9997 22.8707 10.7887 22.8291Z" fill="#0EADFF"/>
<path d="M39.72 19.1274H34.4554C33.2434 19.1694 33.2444 20.9164 34.4554 20.958H39.72C40.932 20.9161 40.9312 19.1691 39.72 19.1274Z" fill="#0EADFF"/>
<path d="M39.72 22.8291H34.4554C33.2434 22.8711 33.2444 24.6181 34.4554 24.6597H39.72C40.932 24.6177 40.9312 22.8707 39.72 22.8291Z" fill="#0EADFF"/>
</g>
<defs>
<clipPath id="clip0">
<rect width="45" height="50" fill="white" transform="translate(0 0.76709)"/>
</clipPath>
</defs>
</svg>
