<svg xmlns="http://www.w3.org/2000/svg" width="28" height="10" viewBox="0 0 28 10"><g><g><path d="M27.77 5.59l-4.195 4.176a.795.795 0 0 1-1.12 0l-.224-.223a.787.787 0 0 1 0-1.116l3.445-3.43-3.445-3.43a.786.786 0 0 1 0-1.114l.224-.223a.795.795 0 0 1 1.12 0l4.194 4.176a.78.78 0 0 1 .229.592.781.781 0 0 1-.229.591zM.001 4.997a.78.78 0 0 1 .229-.592L4.425.23a.795.795 0 0 1 1.12 0l.224.223c.31.308.31.807 0 1.115l-3.445 3.43L5.77 8.427c.31.309.31.808 0 1.116l-.224.223a.795.795 0 0 1-1.12 0L.231 5.589a.781.781 0 0 1-.229-.591z"/></g></g></svg>