<svg width="34" height="32" viewBox="0 0 34 32" fill="none" xmlns="http://www.w3.org/2000/svg">
<g clip-path="url(#clip0_259:236)">
<path d="M17.0649 0.994141C8.0371 0.994141 0.71875 7.8164 0.71875 16.2322C0.71875 24.6481 8.0371 31.4703 17.0649 31.4703C26.0927 31.4703 33.411 24.6481 33.411 16.2322C33.411 7.8164 26.0927 0.994141 17.0649 0.994141Z" fill="#40B3E0"/>
<path d="M25.0188 9.75956L22.0991 23.4821C22.0991 23.4821 21.6908 24.4337 20.5679 23.9769L13.8305 19.1617L11.3806 18.0579L7.25649 16.7636C7.25649 16.7636 6.62359 16.5543 6.56229 16.0975C6.50099 15.6408 7.27692 15.3934 7.27692 15.3934L23.6711 9.39814C23.6711 9.39814 25.0186 8.84623 25.0186 9.7598" fill="white"/>
<path d="M13.3128 23.3276C13.3128 23.3276 13.1161 23.3105 12.8709 22.5871C12.6261 21.8639 11.3806 18.0575 11.3806 18.0575L21.2825 12.1956C21.2825 12.1956 21.8543 11.872 21.8338 12.1956C21.8338 12.1956 21.9359 12.2527 21.6295 12.5191C21.3234 12.7857 13.8511 19.0472 13.8511 19.0472" fill="#D2E5F1"/>
<path d="M16.4138 21.0077L13.749 23.2727C13.749 23.2727 13.5406 23.4201 13.3127 23.3277L13.8231 19.1206" fill="#B5CFE4"/>
</g>
<defs>
<clipPath id="clip0_259:236">
<rect width="32.6923" height="30.4762" fill="white" transform="translate(0.71875 0.994141)"/>
</clipPath>
</defs>
</svg>
