<svg width="42" height="42" viewBox="0 0 42 42" fill="none" xmlns="http://www.w3.org/2000/svg">
<g clip-path="url(#clip0_261:19)">
<g clip-path="url(#clip1_261:19)">
<path d="M38.6289 16.4019L39.8299 15.2009C40.1772 14.8538 40.3685 14.3921 40.3685 13.9012C40.3685 13.4102 40.1772 12.9486 39.83 12.6014L38.4543 11.2258C38.1072 10.8786 37.6456 10.6874 37.1547 10.6874C36.6636 10.6874 36.2021 10.8786 35.8549 11.2258L34.6538 12.4269C33.0686 11.335 31.2698 10.5323 29.3336 10.0956V8.32038H30.0644C31.0539 8.32038 31.859 7.51528 31.859 6.52575V4.02908C31.859 3.03948 31.0539 2.23438 30.0644 2.23438H21.8021C20.8126 2.23438 20.0075 3.03948 20.0075 4.02908V6.52567C20.0075 7.5152 20.8126 8.3203 21.8021 8.3203H22.5328V10.1005C20.6055 10.5384 18.8147 11.3392 17.2358 12.4268L16.0348 11.2257C15.6876 10.8786 15.226 10.6873 14.7351 10.6873C14.2441 10.6873 13.7825 10.8786 13.4353 11.2257L12.0597 12.6013C11.3431 13.318 11.3431 14.4841 12.0597 15.2008L12.2726 15.4138H6.59637C6.15418 15.4138 5.79559 15.7723 5.79559 16.2145C5.79559 16.6568 6.15418 17.0153 6.59637 17.0153H12.8593C12.2627 17.9763 11.7687 19.0073 11.3932 20.0933H1.13769C0.695503 20.0933 0.336914 20.4518 0.336914 20.8941C0.336914 21.3363 0.695503 21.6948 1.13769 21.6948H10.9354C10.7095 22.6881 10.5799 23.7175 10.557 24.7728H5.4619C5.01971 24.7728 4.66112 25.1313 4.66112 25.5736C4.66112 26.0159 5.01971 26.3744 5.4619 26.3744H10.6049C10.6915 27.4341 10.886 28.4636 11.1771 29.4523H4.34081C3.89862 29.4523 3.54003 29.8108 3.54003 30.2531C3.54003 30.6954 3.89862 31.0539 4.34081 31.0539H11.7467C14.0765 36.599 19.5631 40.5031 25.9448 40.5031C34.432 40.5031 41.3369 33.5982 41.3369 25.111C41.3369 21.8807 40.3359 18.8803 38.6289 16.4019ZM36.9874 12.3582C37.0447 12.301 37.1099 12.289 37.1547 12.289C37.1994 12.289 37.2647 12.301 37.322 12.3582L38.6976 13.7339C38.7549 13.7911 38.7669 13.8565 38.7669 13.9012C38.7669 13.9459 38.7549 14.0112 38.6975 14.0685L37.6448 15.1212C37.1201 14.5077 36.5482 13.9358 35.9346 13.4111L36.9874 12.3582ZM21.6091 6.52575V4.02908C21.6091 3.92258 21.6957 3.83593 21.8021 3.83593H30.0644C30.1708 3.83593 30.2575 3.92258 30.2575 4.02908V6.52567C30.2575 6.63218 30.1708 6.71874 30.0644 6.71874H28.5328H23.3336H21.8021C21.6957 6.71882 21.6091 6.63218 21.6091 6.52575ZM24.1344 8.32038H27.7321V9.8232C27.1455 9.75506 26.5494 9.71886 25.9449 9.71886C25.3324 9.71886 24.7285 9.75594 24.1345 9.82585V8.32038H24.1344ZM13.1921 13.7338L14.5677 12.3582C14.625 12.3009 14.6902 12.2889 14.735 12.2889C14.7797 12.2889 14.845 12.3009 14.9023 12.3582L15.9551 13.411C15.3415 13.9357 14.7696 14.5076 14.2449 15.1212L13.1921 14.0684C13.0998 13.9762 13.0998 13.8261 13.1921 13.7338ZM25.9448 38.9014C18.3407 38.9014 12.1543 32.715 12.1543 25.1109C12.1543 17.5068 18.3407 11.3203 25.9448 11.3203C33.5489 11.3203 39.7354 17.5068 39.7354 25.1109C39.7354 32.715 33.5489 38.9014 25.9448 38.9014Z" fill="#0EADFF"/>
<path d="M31.2303 18.6935L27.4449 22.4789C27.0022 22.2257 26.4903 22.0801 25.9449 22.0801C24.2734 22.0801 22.9136 23.4399 22.9136 25.1115C22.9136 26.7829 24.2734 28.1427 25.9449 28.1427C27.6163 28.1427 28.9761 26.7829 28.9761 25.1115C28.9761 24.566 28.8306 24.0541 28.5773 23.6114L32.3627 19.8261C32.6754 19.5134 32.6754 19.0063 32.3627 18.6935C32.0499 18.3808 31.543 18.3808 31.2303 18.6935ZM25.9449 26.5413C25.1565 26.5413 24.5151 25.8999 24.5151 25.1115C24.5151 24.3232 25.1566 23.6817 25.9449 23.6817C26.7331 23.6817 27.3746 24.3232 27.3746 25.1115C27.3746 25.8999 26.7332 26.5413 25.9449 26.5413Z" fill="#0EADFF"/>
<path d="M25.9453 14.7285C26.1559 14.7285 26.3625 14.6428 26.5114 14.4939C26.6603 14.3449 26.7461 14.1383 26.7461 13.9277C26.7461 13.7171 26.6604 13.5105 26.5114 13.3616C26.3625 13.2126 26.1559 13.127 25.9453 13.127C25.7347 13.127 25.5281 13.2126 25.3792 13.3616C25.2302 13.5105 25.1445 13.7171 25.1445 13.9277C25.1445 14.1391 25.2301 14.3449 25.3792 14.4939C25.5282 14.6428 25.7347 14.7285 25.9453 14.7285Z" fill="#0EADFF"/>
<path d="M25.9453 35.4932C25.7347 35.4932 25.5281 35.5788 25.3792 35.7278C25.2302 35.8767 25.1445 36.0833 25.1445 36.2939C25.1445 36.5054 25.2301 36.7112 25.3792 36.8601C25.5281 37.0098 25.7347 37.0947 25.9453 37.0947C26.1559 37.0947 26.3625 37.0098 26.5114 36.8601C26.6603 36.7112 26.7461 36.5046 26.7461 36.2939C26.7461 36.0833 26.6604 35.8767 26.5114 35.7278C26.3625 35.5788 26.1559 35.4932 25.9453 35.4932Z" fill="#0EADFF"/>
<path d="M18.0376 16.4023C17.827 16.4023 17.6204 16.488 17.4714 16.637C17.3225 16.7859 17.2368 16.9925 17.2368 17.2031C17.2368 17.4145 17.3224 17.6203 17.4714 17.7701C17.6204 17.919 17.827 18.0039 18.0376 18.0039C18.2482 18.0039 18.4548 17.919 18.6037 17.7701C18.7526 17.6203 18.8384 17.4145 18.8384 17.2031C18.8384 16.9925 18.7527 16.7867 18.6037 16.637C18.4548 16.488 18.2482 16.4023 18.0376 16.4023Z" fill="#0EADFF"/>
<path d="M33.853 32.2178C33.6415 32.2178 33.4358 32.3035 33.2861 32.4524C33.1371 32.6013 33.0522 32.8079 33.0522 33.0186C33.0522 33.2292 33.1371 33.4358 33.2861 33.5847C33.4358 33.7336 33.6415 33.8193 33.853 33.8193C34.0636 33.8193 34.2702 33.7336 34.4191 33.5847C34.568 33.4358 34.6538 33.2292 34.6538 33.0186C34.6538 32.8079 34.5681 32.6013 34.4191 32.4524C34.2702 32.3035 34.0636 32.2178 33.853 32.2178Z" fill="#0EADFF"/>
<path d="M18.0376 32.2178C17.827 32.2178 17.6204 32.3035 17.4714 32.4524C17.3225 32.6013 17.2368 32.8079 17.2368 33.0186C17.2368 33.2292 17.3224 33.4358 17.4714 33.5847C17.6205 33.7336 17.827 33.8193 18.0376 33.8193C18.2482 33.8193 18.4548 33.7336 18.6037 33.5847C18.7526 33.4358 18.8384 33.2292 18.8384 33.0186C18.8384 32.8079 18.7527 32.6013 18.6037 32.4524C18.4548 32.3035 18.2482 32.2178 18.0376 32.2178Z" fill="#0EADFF"/>
<path d="M14.7622 24.3105C14.5508 24.3105 14.345 24.3962 14.1961 24.5452C14.0464 24.6941 13.9614 24.9007 13.9614 25.1113C13.9614 25.3219 14.0464 25.5285 14.1961 25.6775C14.345 25.8272 14.5509 25.9121 14.7622 25.9121C14.9728 25.9121 15.1794 25.8272 15.3284 25.6775C15.4772 25.5285 15.563 25.3219 15.563 25.1113C15.563 24.9007 15.4773 24.6941 15.3284 24.5452C15.1794 24.3962 14.9728 24.3105 14.7622 24.3105Z" fill="#0EADFF"/>
<path d="M37.6941 24.5452C37.5451 24.3962 37.3385 24.3105 37.1279 24.3105C36.9165 24.3105 36.7107 24.3962 36.5619 24.5452C36.4129 24.6941 36.3271 24.9007 36.3271 25.1113C36.3271 25.3227 36.4128 25.5285 36.5619 25.6775C36.7107 25.8264 36.9173 25.9121 37.1279 25.9121C37.3385 25.9121 37.5451 25.8264 37.6941 25.6775C37.843 25.5285 37.9287 25.3219 37.9287 25.1113C37.9286 24.9007 37.843 24.6942 37.6941 24.5452Z" fill="#0EADFF"/>
<path d="M1.1377 29.4521C0.92709 29.4521 0.720488 29.537 0.571543 29.686C0.422598 29.8357 0.336914 30.0415 0.336914 30.2529C0.336914 30.4635 0.422518 30.6693 0.571543 30.8191C0.720488 30.968 0.92709 31.0537 1.1377 31.0537C1.3483 31.0537 1.5549 30.968 1.70377 30.8191C1.85271 30.6701 1.93848 30.4635 1.93848 30.2529C1.93848 30.0415 1.85279 29.8349 1.70377 29.686C1.5549 29.537 1.3483 29.4521 1.1377 29.4521Z" fill="#0EADFF"/>
<path d="M36.8923 22.6793C37.316 22.553 37.5573 22.107 37.431 21.6832C36.8649 19.7835 35.82 18.0354 34.4094 16.6278C32.9986 15.2201 31.248 14.179 29.3468 13.6171C28.9228 13.4917 28.4773 13.7339 28.3519 14.158C28.2265 14.5821 28.4688 15.0275 28.8929 15.1529C32.2717 16.1515 34.8898 18.7638 35.8962 22.1405C35.9997 22.488 36.3183 22.7127 36.6632 22.7127C36.7389 22.7128 36.8159 22.7019 36.8923 22.6793Z" fill="#0EADFF"/>
</g>
</g>
<defs>
<clipPath id="clip0_261:19">
<rect width="41" height="41" fill="white" transform="translate(0.336914 0.869141)"/>
</clipPath>
<clipPath id="clip1_261:19">
<rect width="41" height="41" fill="white" transform="translate(0.336914 0.869141)"/>
</clipPath>
</defs>
</svg>
