<svg width="36" height="37" viewBox="0 0 36 37" fill="none" xmlns="http://www.w3.org/2000/svg">
<g clip-path="url(#clip0_259:241)">
<path d="M9.39512 31.4917L9.96519 31.7819C12.3408 33.233 15.0013 33.9101 17.6619 33.9101C26.0236 33.9101 32.865 26.945 32.865 18.4321C32.865 14.3692 31.2496 10.4029 28.3991 7.50075C25.5485 4.59858 21.7476 2.9541 17.6619 2.9541C9.30017 2.9541 2.45863 9.9192 2.55371 18.5289C2.55371 21.431 3.40889 24.2365 4.83414 26.6548L5.21418 27.2353L3.69399 32.9428L9.39512 31.4917Z" fill="#00E676"/>
<path d="M30.0144 5.95283C26.7837 2.56708 22.3178 0.729004 17.7569 0.729004C8.06496 0.729004 0.273303 8.7582 0.368247 18.5287C0.368247 21.6243 1.22342 24.6233 2.64881 27.3319L0.178223 36.522L9.39513 34.1035C11.9607 35.5547 14.8112 36.2318 17.6619 36.2318C27.2589 36.2318 35.0505 28.2025 35.0505 18.4322C35.0505 13.6919 33.2451 9.24192 30.0146 5.95283H30.0144ZM17.7569 33.233C15.1913 33.233 12.6258 32.556 10.4403 31.2016L9.87026 30.9113L4.35916 32.3624L5.7844 26.8484L5.40436 26.2679C1.22342 19.3996 3.21888 10.306 10.0603 6.04949C16.9017 1.7931 25.7385 3.82464 29.9195 10.7897C34.1003 17.7548 32.1048 26.7515 25.2636 31.008C23.0779 32.459 20.4175 33.2329 17.7569 33.2329V33.233ZM26.1186 22.4952L25.0734 22.0115C25.0734 22.0115 23.5532 21.3343 22.6029 20.8506C22.5079 20.8506 22.4129 20.7538 22.3178 20.7538C22.0327 20.7538 21.8427 20.8506 21.6527 20.9474C21.6527 20.9474 21.5577 21.0441 20.2274 22.5919C20.1324 22.7853 19.9423 22.8821 19.7523 22.8821H19.6572C19.5623 22.8821 19.3723 22.7853 19.2772 22.6887L18.8021 22.4952C17.7569 22.0115 16.8067 21.431 16.0465 20.6572C15.8565 20.4637 15.5714 20.2702 15.3814 20.0768C14.7162 19.3996 14.0511 18.6256 13.5761 17.755L13.481 17.5615C13.386 17.4647 13.386 17.3681 13.291 17.1746C13.291 16.9811 13.291 16.7877 13.386 16.6909C13.386 16.6909 13.7661 16.2072 14.0511 15.917C14.2412 15.7234 14.3362 15.4333 14.5262 15.2399C14.7162 14.9496 14.8113 14.5627 14.7162 14.2724C14.6213 13.7887 13.481 11.1768 13.196 10.5964C13.0059 10.3062 12.816 10.2095 12.5309 10.1127H11.4857C11.2955 10.1127 11.1056 10.2095 10.9155 10.2095L10.8204 10.3062C10.6304 10.403 10.4403 10.5964 10.2503 10.6931C10.0603 10.8867 9.9652 11.08 9.77518 11.2736C9.11003 12.1442 8.72998 13.2083 8.72998 14.2724C8.72998 15.0463 8.92 15.8202 9.20511 16.4974L9.30019 16.7877C10.1554 18.6256 11.2955 20.2702 12.816 21.7212L13.196 22.1082C13.481 22.3984 13.7661 22.5919 13.9561 22.882C15.9516 24.6234 18.232 25.881 20.7975 26.5582C21.0826 26.6548 21.4627 26.6548 21.7478 26.7516H22.6979C23.173 26.7516 23.7431 26.5582 24.1233 26.3647C24.4082 26.1712 24.5983 26.1712 24.7883 25.9778L24.9785 25.7842C25.1685 25.5907 25.3585 25.4941 25.5485 25.3006C25.7385 25.1071 25.9286 24.9137 26.0236 24.7201C26.2137 24.3332 26.3086 23.8494 26.4037 23.3659V22.6887C26.4037 22.6887 26.3086 22.5919 26.1186 22.4952Z" fill="white"/>
</g>
<defs>
<clipPath id="clip0_259:241">
<rect width="34.8718" height="35.9183" fill="white" transform="translate(0.178223 0.729004)"/>
</clipPath>
</defs>
</svg>
